<?xml version="1.0" encoding="UTF-8"?>
<svg width="219px" height="83px" viewBox="0 0 219 83" version="1.1" xmlns="http://www.w3.org/2000/svg" xmlns:xlink="http://www.w3.org/1999/xlink">
    <!-- Generator: Sketch 49 (51002) - http://www.bohemiancoding.com/sketch -->
    <title>@svglogo-bfco</title>
    <desc>Created with Sketch.</desc>
    <defs></defs>
    <g id="Page-1" stroke="none" stroke-width="1" fill="none" fill-rule="evenodd">
        <g id="Artboard" transform="translate(-45.000000, -43.000000)" fill-rule="nonzero">
            <g id="logo-bfco" transform="translate(45.000000, 43.000000)">
                <g id="Group">
                    <path d="M43.296,65.9089655 C32.2626207,65.9089655 0.321655172,56.9754483 0.321655172,45.942069 C0.321655172,34.9238621 32.2626207,25.9888276 43.296,25.9888276 C54.3187586,25.9888276 63.2522759,34.9253793 63.2522759,45.942069 C63.2537931,56.9769655 54.3187586,65.9089655 43.296,65.9089655" id="Shape" fill="#36783B"></path>
                    <path d="M33.4566897,33.4855172 C26.2771034,29.1295172 9.02,10.6889655 13.3790345,3.51544828 C17.7335172,-3.66110345 42.0594483,3.13917241 49.236,7.51186207 C56.4110345,11.8557241 58.7035862,21.2095172 54.3384828,28.386069 C49.9809655,35.5641379 40.6393103,37.8521379 33.4566897,33.4855172" id="Shape" fill="#C8D51E"></path>
                    <path d="M27.3907586,28.6682759 C29.6817931,30.7863448 31.8226207,32.516 33.4491034,33.4961379 C40.4177931,37.7353103 49.3801379,35.6915862 53.9348966,29.0445517 C50.8548966,27.1176552 47.2377931,25.9615172 43.3384828,25.9615172 C39.6788966,25.96 33.7252414,26.9522759 27.3907586,28.6682759" id="Shape" fill="#2E4837"></path>
                    <path d="M90.6384828,17.0750345 C91.3697931,17.3633103 92.010069,17.7486897 92.5593103,18.2326897 C93.1085517,18.7166897 93.550069,19.2568276 93.8914483,19.8576552 C94.2297931,20.4584828 94.4846897,21.0972414 94.6546207,21.7769655 C94.8245517,22.4566897 94.908,23.1470345 94.908,23.8525517 C94.908,25.0830345 94.6682759,26.2042759 94.1827586,27.2193103 C93.7002759,28.2404138 93.0478621,29.1173793 92.2270345,29.8456552 C91.4031724,30.573931 90.4366897,31.1398621 89.326069,31.5282759 C88.2169655,31.9197241 87.0213793,32.1154483 85.7423448,32.1154483 L76.1867586,32.1154483 C75.3507586,32.1154483 74.7742069,31.9409655 74.4601379,31.5874483 C74.1475862,31.2354483 73.9928276,30.6695172 73.9928276,29.8835862 L73.9928276,6.89434483 C73.9928276,6.13572414 74.1475862,5.57434483 74.4601379,5.20868966 C74.7742069,4.84303448 75.3507586,4.65793103 76.1867586,4.65793103 L85.272,4.62151724 C86.4736552,4.62151724 87.5964138,4.75048276 88.6433103,5.01296552 C89.6871724,5.27696552 90.5808276,5.67903448 91.3242759,6.22827586 C92.0692414,6.776 92.6564138,7.48151724 93.0888276,8.34331034 C93.5197241,9.20510345 93.7351724,10.2353103 93.7351724,11.4369655 C93.7351724,12.6128276 93.4408276,13.6794483 92.8536552,14.6292414 C92.2634483,15.5866207 91.5275862,16.3073103 90.64,16.8049655 L90.64,17.0750345 L90.6384828,17.0750345 Z M78.7691034,15.3150345 L85.1157241,15.3150345 C85.4828966,15.3150345 85.8804138,15.2695172 86.3097931,15.1754483 C86.7437241,15.085931 87.1397241,14.916 87.5053793,14.6671724 C87.8695172,14.4198621 88.169931,14.08 88.4066207,13.6491034 C88.6433103,13.2166897 88.7586207,12.6507586 88.7586207,11.9437241 C88.7586207,11.006069 88.4521379,10.2611034 87.8391724,9.71186207 C87.2262069,9.16262069 86.3962759,8.88951724 85.3508966,8.88951724 L78.7691034,8.88951724 L78.7691034,15.3150345 Z M89.9754483,23.5415172 C89.9754483,22.2867586 89.5748966,21.2611034 88.7768276,20.4645517 C87.9848276,19.6695172 86.8150345,19.2704828 85.272,19.2704828 L78.7691034,19.2704828 L78.7691034,27.8110345 L85.234069,27.8110345 C86.1732414,27.8110345 86.9424828,27.6714483 87.5448276,27.3968276 C88.1441379,27.1267586 88.6266207,26.7808276 88.9937931,26.3605517 C89.357931,25.9433103 89.6143448,25.4805517 89.7584828,24.9692414 C89.9011034,24.4609655 89.9754483,23.9830345 89.9754483,23.5415172 Z" id="Shape" fill="#565859"></path>
                    <path d="M113.198345,29.8835862 C113.198345,30.5117241 112.951034,30.9426207 112.454897,31.1762759 C111.881379,31.4387586 111.25931,31.6602759 110.594759,31.8438621 C109.92869,32.025931 109.242897,32.1685517 108.538897,32.2732414 C107.831862,32.377931 107.135448,32.4492414 106.443586,32.4886897 C105.750207,32.5281379 105.091724,32.5493793 104.463586,32.5493793 C102.741517,32.5493793 101.310759,32.3703448 100.175862,32.0183448 C99.037931,31.6678621 98.1382069,31.1944828 97.4736552,30.6073103 C96.8075862,30.0201379 96.3433103,29.3282759 96.0823448,28.5332414 C95.8198621,27.7366897 95.6893793,26.8946207 95.6893793,26.004 C95.6893793,25.0921379 95.8395862,24.2106207 96.1430345,23.3624828 C96.4404138,22.5143448 96.932,21.7678621 97.6086897,21.1306207 C98.2868966,20.4888276 99.1684138,19.9729655 100.254759,19.5815172 C101.338069,19.190069 102.664138,18.9958621 104.229931,18.9958621 L108.616276,18.9958621 L108.616276,18.3282759 C108.616276,17.8351724 108.56469,17.3769655 108.46,16.9597241 C108.356828,16.5409655 108.150483,16.1737931 107.853103,15.8612414 C107.55269,15.5486897 107.14,15.3074483 106.619586,15.1375172 C106.096138,14.9675862 105.419448,14.8826207 104.581931,14.8826207 C103.694345,14.8826207 102.727862,14.96 101.685517,15.1177931 C100.641655,15.274069 99.792,15.4561379 99.138069,15.6655172 C98.8497931,15.7428966 98.6434483,15.7565517 98.509931,15.701931 C98.3809655,15.6488276 98.2884138,15.5062069 98.2368276,15.2725517 L97.6875862,13.0391724 C97.5844138,12.6234483 97.7027586,12.3488276 98.0411034,12.2168276 C99.138069,11.8011034 100.339724,11.5037241 101.643034,11.3353103 C102.949379,11.1653793 104.176828,11.0788966 105.326897,11.0788966 C108.042759,11.0788966 110.031862,11.6812414 111.301793,12.8813793 C112.567172,14.0845517 113.199862,15.8308966 113.199862,18.1295172 L113.199862,29.8835862 L113.198345,29.8835862 Z M108.578345,22.4809655 L104.817103,22.4809655 C104.372552,22.4809655 103.896138,22.5082759 103.387862,22.5613793 C102.881103,22.6114483 102.395586,22.7555862 101.940414,22.9907586 C101.48069,23.2228966 101.102897,23.5657931 100.804,24.0073103 C100.503586,24.4533793 100.351862,25.0663448 100.351862,25.8507586 C100.351862,26.972 100.729655,27.7564138 101.488276,28.2024828 C102.245379,28.644 103.252828,28.8655172 104.503034,28.8655172 C104.685103,28.8655172 104.938483,28.8609655 105.267724,28.8473103 C105.595448,28.8321379 105.939862,28.8017931 106.307034,28.7517241 C106.671172,28.6955862 107.058069,28.6333793 107.461655,28.5529655 C107.866759,28.4725517 108.241517,28.373931 108.578345,28.2404138 L108.578345,22.4809655 Z" id="Shape" fill="#565859"></path>
                    <path d="M123.57931,14.9994483 C123.292552,14.9994483 122.881379,15.0070345 122.345793,15.0191724 C121.80869,15.0343448 121.188138,15.1041379 120.484138,15.2361379 L120.484138,31.4524138 C120.484138,31.7376552 120.434069,31.9212414 120.326345,32.0001379 C120.223172,32.0775172 120.027448,32.1154483 119.74069,32.1154483 L116.683448,32.1154483 C116.424,32.1154483 116.234345,32.0775172 116.114483,32.0001379 C115.997655,31.9197241 115.94,31.7376552 115.94,31.4524138 L115.94,14.6868966 C115.94,13.7462069 116.108414,13.0164138 116.448276,12.4929655 C116.786621,11.9710345 117.492138,11.6175172 118.560276,11.4354483 C118.821241,11.4111724 119.170207,11.3717241 119.611724,11.3201379 C120.056276,11.270069 120.526621,11.2275862 121.021241,11.2033103 C121.515862,11.176 121.998345,11.1532414 122.467172,11.125931 C122.936,11.0986207 123.338069,11.0834483 123.679448,11.0834483 C125.398483,11.0834483 126.892966,11.270069 128.152276,11.6326897 C129.417655,11.9983448 130.461517,12.5824828 131.280828,13.3744828 C132.101655,14.1710345 132.707034,15.2118621 133.096966,16.4908966 C133.489931,17.7684138 133.685655,19.309931 133.685655,21.1124138 L133.685655,31.4524138 C133.685655,31.7376552 133.632552,31.9212414 133.527862,32.0001379 C133.427724,32.0775172 133.230483,32.1154483 132.946759,32.1154483 L129.878897,32.1154483 C129.620966,32.1154483 129.43131,32.0775172 129.316,32.0001379 C129.199172,31.9197241 129.143034,31.7376552 129.143034,31.4524138 L129.143034,21.0335172 C129.143034,20.0154483 129.056552,19.1278621 128.885103,18.3677241 C128.71669,17.6121379 128.422345,16.9855172 128.005103,16.4908966 C127.587862,15.9947586 127.020414,15.6230345 126.302759,15.3742069 C125.585103,15.1253793 124.676276,14.9994483 123.57931,14.9994483" id="Shape" fill="#565859"></path>
                    <path d="M145.435172,28.5514483 C146.275724,28.5514483 147.10869,28.4452414 147.94469,28.2388966 C148.779172,28.0295172 149.471034,27.7958621 150.018759,27.5333793 C150.307034,27.4028966 150.50731,27.3634483 150.624138,27.4165517 C150.742483,27.4696552 150.844138,27.5986207 150.916966,27.8095172 L151.898621,30.0777931 C152.158069,30.4965517 152.08069,30.8242759 151.663448,31.0609655 C150.593793,31.6602759 149.434621,32.0562759 148.196552,32.2550345 C146.955448,32.4492414 145.800828,32.5478621 144.729655,32.5478621 C141.804414,32.5478621 139.566483,31.6587586 138.012828,29.882069 C136.459172,28.1038621 135.683862,25.469931 135.683862,21.9681379 C135.683862,20.3249655 135.903862,18.832 136.346897,17.4862069 C136.792966,16.1404138 137.427172,14.9918621 138.248,14.0405517 C139.070345,13.0862069 140.061103,12.3548966 141.224828,11.8466207 C142.387034,11.3368276 143.699448,11.0804138 145.162069,11.0804138 C146.230207,11.0804138 147.269517,11.1942069 148.276966,11.4142069 C149.282897,11.6387586 150.228138,11.9816552 151.117241,12.4550345 C151.353931,12.5870345 151.493517,12.7144828 151.549655,12.848 C151.59669,12.9769655 151.561793,13.1726897 151.428276,13.4366897 L150.448138,15.7444138 C150.348,15.9553103 150.23269,16.0842759 150.115862,16.1358621 C149.999034,16.1889655 149.783586,16.1510345 149.469517,16.0205517 C148.841379,15.7823448 148.190483,15.582069 147.510759,15.4121379 C146.834069,15.2437241 146.113379,15.1602759 145.356276,15.1602759 C144.470207,15.1602759 143.705517,15.3468966 143.066759,15.7277241 C142.424966,16.1055172 141.901517,16.6092414 141.499448,17.2343448 C141.09131,17.8594483 140.8,18.5862069 140.616414,19.4085517 C140.435862,20.2293793 140.341793,21.0866207 140.341793,21.9711724 C140.341793,22.886069 140.423724,23.7433103 140.578483,24.5368276 C140.736276,25.3364138 141.000276,26.0313103 141.379586,26.6336552 C141.755862,27.2344828 142.273241,27.7063448 142.927172,28.0462069 C143.584138,28.3845517 144.421655,28.5514483 145.435172,28.5514483" id="Shape" fill="#565859"></path>
                    <path d="M171.639448,21.7375172 C171.639448,25.212 170.83531,27.8808276 169.231586,29.7485517 C167.624828,31.6132414 165.229103,32.5493793 162.044414,32.5493793 C158.884,32.5493793 156.527724,31.6405517 154.974069,29.825931 C153.420414,28.0097931 152.643586,25.3561379 152.643586,21.8558621 C152.643586,20.1307586 152.880276,18.6028966 153.349103,17.2722759 C153.822483,15.9401379 154.471862,14.8204138 155.307862,13.9009655 C156.145379,12.9906207 157.143724,12.2911724 158.307448,11.8071724 C159.466621,11.3246897 160.754759,11.0804138 162.164276,11.0804138 C165.268552,11.0804138 167.627862,12.0286897 169.233103,13.9206897 C170.83531,15.8172414 171.639448,18.4223448 171.639448,21.7375172 M166.98,21.8558621 C166.98,20.9121379 166.910207,20.0169655 166.764552,19.1748966 C166.620414,18.3343448 166.371586,17.5924138 166.022621,16.9506207 C165.669103,16.3042759 165.183586,15.802069 164.569103,15.4303448 C163.957655,15.0646897 163.180828,14.8826207 162.241655,14.8826207 C161.404138,14.8826207 160.674345,15.0586207 160.046207,15.4121379 C159.421103,15.7686897 158.897655,16.2511724 158.483448,16.8504828 C158.063172,17.4558621 157.75669,18.178069 157.560966,19.0201379 C157.366759,19.8591724 157.268138,20.7649655 157.268138,21.7344828 C157.268138,23.9162759 157.620138,25.6292414 158.325655,26.877931 C159.031172,28.1266207 160.284414,28.7471724 162.086897,28.7471724 C163.000276,28.7471724 163.766483,28.5575172 164.396138,28.1766897 C165.021241,27.7958621 165.526483,27.2906207 165.904276,26.6594483 C166.282069,26.0297931 166.55669,25.3015172 166.725103,24.4746207 C166.893517,23.6477241 166.98,22.7753103 166.98,21.8558621" id="Shape" fill="#565859"></path>
                    <path d="M109.66469,63.6755862 C109.66469,64.3022069 109.41131,64.7315862 108.904552,64.9743448 C108.334069,65.2307586 107.702897,65.465931 107.048966,65.641931 C106.360138,65.8224828 105.678897,65.9711724 104.964276,66.0743448 C104.255724,66.1775172 103.551724,66.2533793 102.858345,66.2943448 C102.15131,66.3368276 101.486759,66.3504828 100.857103,66.3504828 C99.1153103,66.3504828 97.6724138,66.1790345 96.5329655,65.8224828 C95.3753103,65.465931 94.4710345,64.9910345 93.7973793,64.3993103 C93.1328276,63.8 92.6594483,63.1035862 92.3984828,62.297931 C92.1375172,61.4968276 91.997931,60.6502069 91.997931,59.7595862 C91.997931,58.8188966 92.1587586,57.9510345 92.4622069,57.0877241 C92.758069,56.2350345 93.2526897,55.4733793 93.9384828,54.8270345 C94.644,54.1913103 95.5133793,53.6693793 96.6103448,53.2733793 C97.7103448,52.8713103 99.044,52.6786207 100.606759,52.6786207 L105.043172,52.6786207 L105.043172,52.0110345 C105.043172,51.517931 104.985517,51.0506207 104.888414,50.6197241 C104.776138,50.2085517 104.572828,49.8428966 104.275448,49.5166897 C103.968966,49.2132414 103.553241,48.9613793 103.040414,48.8005517 C102.494207,48.6215172 101.820552,48.5289655 100.975448,48.5289655 C100.075724,48.5289655 99.1092414,48.6078621 98.0502069,48.7823448 C96.9896552,48.9234483 96.1506207,49.1024828 95.4708966,49.3224828 C95.1932414,49.3953103 94.9777931,49.4104828 94.8564138,49.368 C94.7289655,49.317931 94.6455172,49.1631724 94.5817931,48.921931 L94.034069,46.6748966 C93.9217931,46.2485517 94.034069,45.9769655 94.3815172,45.8525517 C95.4708966,45.4428966 96.6922759,45.1303448 98.0153103,44.9543448 C99.3277241,44.7889655 100.564276,44.7009655 101.723448,44.7009655 C104.463586,44.7009655 106.466345,45.3063448 107.746897,46.5125517 C109.025931,47.7248276 109.666207,49.4969655 109.666207,51.8153103 L109.666207,63.6755862 L109.66469,63.6755862 Z M105.002207,56.1986207 L101.209103,56.1986207 C100.758483,56.1986207 100.286621,56.2213793 99.7768276,56.276 C99.2442759,56.326069 98.7724138,56.4732414 98.3051034,56.7068966 C97.8529655,56.9617931 97.4615172,57.2849655 97.1626207,57.7371034 C96.8682759,58.1877241 96.7089655,58.8128276 96.7089655,59.5881379 C96.7089655,60.7275862 97.0988966,61.5150345 97.8529655,61.9686897 C98.6146207,62.4223448 99.6342069,62.649931 100.893517,62.649931 C101.072552,62.649931 101.336552,62.6362759 101.662759,62.612 C101.993517,62.5998621 102.350069,62.5710345 102.706621,62.517931 C103.078345,62.4663448 103.46069,62.4011034 103.873379,62.3191724 C104.286069,62.2387586 104.666897,62.1416552 105.002207,62.0035862 L105.002207,56.1986207 Z" id="Shape" fill="#9FA0A0"></path>
                    <path d="M139.143172,63.6755862 C139.143172,64.3022069 138.895862,64.7315862 138.383034,64.9743448 C137.815586,65.2307586 137.176828,65.465931 136.518345,65.641931 C135.843172,65.8224828 135.157379,65.9711724 134.438207,66.0743448 C133.722069,66.1775172 133.02869,66.2533793 132.326207,66.2943448 C131.628276,66.3368276 130.968276,66.3504828 130.337103,66.3504828 C128.593793,66.3504828 127.152414,66.1790345 126.009931,65.8224828 C124.856828,65.465931 123.952552,64.9910345 123.277379,64.3993103 C122.609793,63.8 122.140966,63.1035862 121.88,62.297931 C121.611448,61.4968276 121.474897,60.6502069 121.474897,59.7595862 C121.474897,58.8188966 121.634207,57.9510345 121.945241,57.0877241 C122.250207,56.2350345 122.729655,55.4733793 123.416966,54.8270345 C124.108828,54.1913103 124.993379,53.6693793 126.078207,53.2733793 C127.178207,52.8713103 128.510345,52.6786207 130.08069,52.6786207 L134.517103,52.6786207 L134.517103,52.0110345 C134.517103,51.517931 134.471586,51.0506207 134.353241,50.6197241 C134.253103,50.2085517 134.055862,49.8428966 133.758483,49.5166897 C133.450483,49.2132414 133.02869,48.9613793 132.502207,48.8005517 C131.97269,48.6215172 131.288414,48.5289655 130.452414,48.5289655 C129.554207,48.5289655 128.577103,48.6078621 127.524138,48.7823448 C126.468138,48.9234483 125.615448,49.1024828 124.956966,49.3224828 C124.674759,49.3953103 124.460828,49.4104828 124.337931,49.368 C124.196828,49.317931 124.110345,49.1631724 124.048138,48.921931 L123.498897,46.6748966 C123.385103,46.2485517 123.514069,45.9769655 123.852414,45.8525517 C124.958483,45.4428966 126.173793,45.1303448 127.490759,44.9543448 C128.810759,44.7889655 130.04731,44.7009655 131.206483,44.7009655 C133.945103,44.7009655 135.950897,45.3063448 137.226897,46.5125517 C138.507448,47.7248276 139.143172,49.4969655 139.143172,51.8153103 L139.143172,63.6755862 Z M134.485241,56.1986207 L130.69669,56.1986207 C130.241517,56.1986207 129.756,56.2213793 129.249241,56.276 C128.733379,56.326069 128.253931,56.4732414 127.788138,56.7068966 C127.328414,56.9617931 126.94,57.2849655 126.639586,57.7371034 C126.328552,58.1877241 126.188966,58.8128276 126.188966,59.5881379 C126.188966,60.7275862 126.563724,61.5150345 127.336,61.9686897 C128.091586,62.4223448 129.102069,62.649931 130.381103,62.649931 C130.566207,62.649931 130.808966,62.6362759 131.14731,62.612 C131.461379,62.5998621 131.819448,62.5710345 132.19269,62.517931 C132.561379,62.4663448 132.94069,62.4011034 133.354897,62.3191724 C133.766069,62.2387586 134.137793,62.1416552 134.485241,62.0035862 L134.485241,56.1986207 Z" id="Shape" fill="#9FA0A0"></path>
                    <path d="M171.349655,44.7009655 C174.375034,44.7009655 176.628138,45.4868966 178.083172,47.0329655 C179.541241,48.5911724 180.269517,50.7183448 180.269517,53.4357241 C180.269517,54.1184828 180.192138,54.6874483 180.032828,55.1411034 C179.875034,55.5750345 179.647448,55.9270345 179.362207,56.1986207 C179.076966,56.4641379 178.735586,56.6568276 178.35931,56.7463448 C177.970897,56.8525517 177.562759,56.9086897 177.112138,56.9086897 L166.614345,56.9086897 C166.638621,57.948 166.782759,58.7946207 167.080138,59.4986207 C167.366897,60.1950345 167.767448,60.7594483 168.257517,61.1918621 C168.764276,61.6227586 169.342345,61.9383448 169.993241,62.121931 C170.660828,62.304 171.378483,62.398069 172.143172,62.398069 C172.973103,62.398069 173.818207,62.2964138 174.629931,62.0824828 C175.437103,61.8806897 176.157793,61.6227586 176.755586,61.3284138 C177.166759,61.1569655 177.465655,61.2191724 177.634069,61.5711724 L178.70069,63.8091034 C178.878207,64.2430345 178.784138,64.5373793 178.423034,64.730069 C177.418621,65.3384828 176.338345,65.7542069 175.133655,65.9924138 C173.957793,66.2336552 172.824414,66.3489655 171.738069,66.3489655 C168.54731,66.3489655 166.109103,65.4947586 164.437103,63.7757241 C162.751448,62.0764138 161.900276,59.3605517 161.900276,55.6478621 C161.900276,53.906069 162.136966,52.36 162.617931,51.0051034 C163.088276,49.6395862 163.74069,48.4910345 164.56,47.5655172 C165.406621,46.6278621 166.39131,45.9117241 167.552,45.4444138 C168.709655,44.9497931 169.982621,44.7009655 171.349655,44.7009655 M171.422483,48.5304828 C170.716966,48.5304828 170.08731,48.6715862 169.535034,48.9446897 C168.969103,49.2344828 168.494207,49.6107586 168.113379,50.0674483 C167.723448,50.556 167.394207,51.0885517 167.152966,51.693931 C166.917793,52.2932414 166.782759,52.9244138 166.766069,53.585931 L175.849793,53.585931 C175.849793,52.8697931 175.786069,52.221931 175.646483,51.6135172 C175.519034,51.0111724 175.297517,50.4816552 174.959172,50.0188966 C174.626897,49.5561379 174.182345,49.1874483 173.625517,48.921931 C173.048966,48.6715862 172.32069,48.5304828 171.422483,48.5304828" id="Shape" fill="#9FA0A0"></path>
                    <path d="M218.881793,63.6755862 C218.881793,64.3022069 218.626897,64.7315862 218.123172,64.9743448 C217.557241,65.2307586 216.939724,65.465931 216.263034,65.641931 C215.575724,65.8224828 214.891448,65.9711724 214.185931,66.0743448 C213.469793,66.1775172 212.753655,66.2533793 212.075448,66.2943448 C211.366897,66.3368276 210.712966,66.3504828 210.068138,66.3504828 C208.333931,66.3504828 206.907724,66.1790345 205.744,65.8224828 C204.604552,65.465931 203.700276,64.9910345 203.016,64.3993103 C202.357517,63.8 201.890207,63.1035862 201.612552,62.297931 C201.353103,61.4968276 201.215034,60.6502069 201.215034,59.7595862 C201.215034,58.8188966 201.372828,57.9510345 201.67931,57.0877241 C201.967586,56.2350345 202.480414,55.4733793 203.163172,54.8270345 C203.836828,54.1913103 204.733517,53.6693793 205.824414,53.2733793 C206.922897,52.8713103 208.258069,52.6786207 209.839034,52.6786207 L214.261793,52.6786207 L214.261793,52.0110345 C214.261793,51.517931 214.222345,51.0506207 214.102483,50.6197241 C214.000828,50.2085517 213.785379,49.8428966 213.494069,49.5166897 C213.186069,49.2132414 212.776414,48.9613793 212.248414,48.8005517 C211.723448,48.6215172 211.037655,48.5289655 210.195586,48.5289655 C209.306483,48.5289655 208.320276,48.6078621 207.258207,48.7823448 C206.217379,48.9234483 205.370759,49.1024828 204.703172,49.3224828 C204.410345,49.3953103 204.194897,49.4104828 204.068966,49.368 C203.930897,49.317931 203.838345,49.1631724 203.79131,48.921931 L203.239034,46.6748966 C203.13131,46.2485517 203.246621,45.9769655 203.600138,45.8525517 C204.703172,45.4428966 205.909379,45.1303448 207.220276,44.9543448 C208.552414,44.7889655 209.784414,44.7009655 210.936,44.7009655 C213.683724,44.7009655 215.691034,45.3063448 216.970069,46.5125517 C218.235448,47.7248276 218.881793,49.4969655 218.881793,51.8153103 L218.881793,63.6755862 Z M214.222345,56.1986207 L210.418621,56.1986207 C209.978621,56.1986207 209.499172,56.2213793 208.986345,56.276 C208.473517,56.326069 207.988,56.4732414 207.519172,56.7068966 C207.057931,56.9617931 206.683172,57.2849655 206.372138,57.7371034 C206.082345,58.1877241 205.924552,58.8128276 205.924552,59.5881379 C205.924552,60.7275862 206.312966,61.5150345 207.068552,61.9686897 C207.827172,62.4223448 208.85131,62.649931 210.110621,62.649931 C210.30331,62.649931 210.546069,62.6362759 210.879862,62.612 C211.218207,62.5998621 211.564138,62.5710345 211.923724,62.517931 C212.296966,62.4663448 212.688414,62.4011034 213.093517,62.3191724 C213.503172,62.2387586 213.884,62.1416552 214.222345,62.0035862 L214.222345,56.1986207 Z" id="Shape" fill="#9FA0A0"></path>
                    <path d="M92.8126897,38.4423448 C92.7186207,38.2891034 92.4895172,38.229931 92.1238621,38.229931 L81.0161379,38.229931 C79.690069,38.229931 78.5597241,38.4256552 77.6675862,38.8216552 C76.7693793,39.2131034 76.0426207,39.738069 75.5024828,40.392 C74.938069,41.0626207 74.5466207,41.8106207 74.3266207,42.673931 C74.1096552,43.5251034 73.9943448,44.4096552 73.9943448,45.3442759 L73.9943448,65.0896552 C73.9943448,65.428 74.0671724,65.6571034 74.2295172,65.7587586 C74.3888276,65.861931 74.617931,65.9165517 74.9153103,65.9165517 L76.157931,65.9165517 C77.0121379,65.8588966 78.8070345,65.4264828 78.8070345,62.8471724 L78.8070345,53.7482759 L90.6551724,53.7482759 C91.0162759,53.7482759 91.2241379,53.6708966 91.3121379,53.5085517 C91.4153103,53.3507586 91.4608276,53.1292414 91.4608276,52.8364138 L91.4608276,50.5954483 C91.4608276,50.2085517 91.4168276,49.984 91.3121379,49.8686897 C91.2241379,49.7473103 91.0177931,49.6729655 90.6551724,49.6729655 L78.8070345,49.6729655 L78.8070345,45.0651034 C78.8070345,44.226069 79.0073103,43.5797241 79.4382069,43.1457931 C79.8281379,42.7088276 80.5412414,42.4903448 81.5395862,42.4903448 L92.1238621,42.4903448 C92.4637241,42.4903448 92.6897931,42.4235862 92.7944828,42.2809655 C92.9052414,42.1686897 92.9613793,41.925931 92.9613793,41.573931 L92.9613793,39.1342069 C92.9628966,38.8216552 92.9052414,38.5864828 92.8126897,38.4423448" id="Shape" fill="#9FA0A0"></path>
                    <path d="M159.764,51.090069 C159.408966,49.7791724 158.874897,48.6533793 158.143586,47.7051034 C157.418345,46.7628966 156.49131,46.0194483 155.339724,45.5005517 C154.195724,44.9588966 152.837793,44.7024828 151.259862,44.7024828 C150.54069,44.7024828 149.732,44.7586207 148.826207,44.8754483 C147.908276,44.9983448 147.07531,45.1849655 146.310621,45.4110345 L146.278759,37.7595862 C146.278759,37.4364138 146.22869,37.2437241 146.120966,37.1633103 C146.017793,37.0692414 145.820552,37.0464828 145.527724,37.0464828 L144.288138,37.0464828 C143.417241,37.1132414 141.74069,37.5668966 141.693655,40.0172414 L141.693655,63.9851034 C141.693655,64.2142069 141.730069,64.4008276 141.816552,64.5631724 C141.887862,64.6982069 142.05931,64.8211034 142.27931,64.9166897 C143.470345,65.4674483 144.761517,65.8255172 146.168,66.0227586 C147.588138,66.2473103 148.962759,66.352 150.310069,66.352 C152.03669,66.352 153.54331,66.0758621 154.823862,65.5311724 C156.066483,64.9758621 157.108828,64.2066207 157.93269,63.2097931 C158.744414,62.2235862 159.35131,61.0644138 159.729103,59.7064828 C160.114483,58.3667586 160.288966,56.9102069 160.288966,55.3307586 C160.288966,53.805931 160.119034,52.3873103 159.764,51.090069 M155.168276,58.7217931 C154.901241,59.5896552 154.524966,60.3103448 154.062207,60.8641379 C153.572138,61.4118621 153.006207,61.8093793 152.329517,62.0612414 C151.660414,62.3176552 150.898759,62.4329655 150.084,62.4329655 C149.554483,62.4329655 148.944552,62.4102069 148.254207,62.3343448 C147.572966,62.2782069 146.923586,62.1401379 146.278759,61.9246897 L146.278759,49.2815172 C147.120828,49.0205517 147.921931,48.8536552 148.694207,48.7838621 C149.475586,48.6943448 150.061241,48.6518621 150.481517,48.6518621 C152.073103,48.6518621 153.308138,49.2193103 154.218483,50.3648276 C155.113655,51.4845517 155.555172,53.2142069 155.555172,55.528 C155.553655,56.7903448 155.42469,57.8524138 155.168276,58.7217931" id="Shape" fill="#9FA0A0"></path>
                    <path d="M190.439586,64.9743448 L190.164966,62.7531034 C190.136138,62.5361379 190.083034,62.4102069 189.990483,62.3343448 C189.897931,62.2782069 189.749241,62.2645517 189.530759,62.2842759 C189.353241,62.3070345 189.119586,62.3297931 188.843448,62.3616552 C188.56731,62.3950345 188.315448,62.3995862 188.115172,62.3995862 C187.593241,62.3995862 187.226069,62.2782069 187.045517,62.0217931 C186.861931,61.782069 186.781517,61.3117241 186.781517,60.6213793 L186.781517,37.7171034 C186.781517,37.4212414 186.713241,37.2422069 186.590345,37.1617931 C186.476552,37.0677241 186.264138,37.0449655 185.981931,37.0449655 L184.708966,37.0449655 C183.847172,37.1117241 182.197931,37.5638621 182.097793,39.9155862 L182.097793,61.7289655 C182.097793,63.4388966 182.445241,64.636 183.140138,65.3233103 C183.824414,66.0166897 184.894069,66.352 186.384,66.352 C186.908966,66.352 187.496138,66.3155862 188.172828,66.2564138 C188.844966,66.1805517 189.44731,66.0561379 189.970759,65.8376552 C190.236276,65.7071724 190.398621,65.5918621 190.442621,65.4977931 C190.49269,65.4097931 190.49269,65.2307586 190.439586,64.9743448" id="Shape" fill="#9FA0A0"></path>
                    <path d="M200.567172,64.9743448 L200.294069,62.7531034 C200.26069,62.5361379 200.213655,62.4102069 200.115034,62.3343448 C200.033103,62.2782069 199.86469,62.2645517 199.662897,62.2842759 C199.473241,62.3070345 199.239586,62.3297931 198.966483,62.3616552 C198.697931,62.3950345 198.444552,62.3995862 198.242759,62.3995862 C197.714759,62.3995862 197.35669,62.2782069 197.170069,62.0217931 C196.989517,61.782069 196.910621,61.3117241 196.910621,60.6213793 L196.910621,37.7171034 C196.910621,37.4212414 196.837793,37.2422069 196.719448,37.1617931 C196.614759,37.0677241 196.39931,37.0449655 196.106483,37.0449655 L194.841103,37.0449655 C193.958069,37.1117241 192.258759,37.5790345 192.225379,40.0612414 L192.225379,61.7274483 C192.225379,63.4373793 192.577379,64.6344828 193.260138,65.3217931 C193.941379,66.0151724 195.027724,66.3504828 196.500966,66.3504828 C197.035034,66.3504828 197.62069,66.314069 198.306483,66.2548966 C198.966483,66.1790345 199.565793,66.0546207 200.104414,65.8361379 C200.368414,65.7056552 200.517103,65.5903448 200.567172,65.4962759 C200.62331,65.4097931 200.62331,65.2307586 200.567172,64.9743448" id="Shape" fill="#9FA0A0"></path>
                    <path d="M120.902897,64.9743448 L120.626759,62.7531034 C120.594897,62.5361379 120.534207,62.4102069 120.450759,62.3343448 C120.361241,62.2782069 120.204966,62.2645517 119.986483,62.2842759 C119.807448,62.3070345 119.570759,62.3297931 119.293103,62.3616552 C119.012414,62.3950345 118.766621,62.3995862 118.564828,62.3995862 C118.045931,62.3995862 117.686345,62.2782069 117.504276,62.0217931 C117.307034,61.782069 117.216,61.3117241 117.216,60.6213793 L117.216,37.7171034 C117.216,37.4212414 117.165931,37.2422069 117.050621,37.1617931 C116.918621,37.0677241 116.736552,37.0449655 116.44069,37.0449655 L115.16469,37.0449655 C114.287724,37.1117241 112.573241,37.5790345 112.56869,40.0991724 L112.56869,61.7289655 C112.56869,63.4388966 112.910069,64.636 113.595862,65.3233103 C114.277103,66.0166897 115.349793,66.352 116.841241,66.352 C117.352552,66.352 117.957931,66.3155862 118.642207,66.2564138 C119.297655,66.1805517 119.904552,66.0561379 120.429517,65.8376552 C120.693517,65.7071724 120.85131,65.5918621 120.905931,65.4977931 C120.949931,65.4097931 120.949931,65.2307586 120.902897,64.9743448" id="Shape" fill="#9FA0A0"></path>
                </g>
                <g id="Group" transform="translate(73.244828, 71.310345)" fill="#565859">
                    <path d="M6.38606897,8.88193103 L5.57586207,8.88193103 C5.40441379,8.88193103 5.33006897,8.83944828 5.33006897,8.65586207 L5.33006897,5.51668966 L2.00882759,5.51668966 L2.00882759,8.65586207 C2.00882759,8.84855172 1.95572414,8.88193103 1.75089655,8.88193103 L0.939172414,8.88193103 C0.779862069,8.88193103 0.694896552,8.83944828 0.694896552,8.65586207 L0.694896552,1.62951724 C0.694896552,1.44593103 0.779862069,1.40344828 0.939172414,1.40344828 L1.75089655,1.40344828 C1.95572414,1.40344828 2.00882759,1.43531034 2.00882759,1.62951724 L2.00882759,4.39544828 L5.33006897,4.39544828 L5.33006897,1.62951724 C5.33006897,1.44593103 5.40441379,1.40344828 5.57586207,1.40344828 L6.38606897,1.40344828 C6.57875862,1.40344828 6.63034483,1.43531034 6.63034483,1.62951724 L6.63034483,8.65586207 C6.63186207,8.84855172 6.57875862,8.88193103 6.38606897,8.88193103 Z" id="Shape"></path>
                    <path d="M12.1682759,8.624 C11.5371034,8.9137931 10.6722759,8.99875862 9.98648276,8.99875862 C8.10813793,8.99875862 7.59531034,8.18855172 7.59531034,7.21448276 C7.59531034,6.2222069 8.22648276,5.30124138 9.92427586,5.30124138 L11.1198621,5.30124138 L11.1198621,5.1222069 C11.1198621,4.576 10.9377931,4.18151724 10.0198621,4.18151724 C9.54041379,4.18151724 8.88648276,4.28924138 8.53448276,4.39696552 C8.38275862,4.43944828 8.31903448,4.4182069 8.28717241,4.29075862 L8.13696552,3.68234483 C8.10510345,3.564 8.12786207,3.50027586 8.23255172,3.45475862 C8.83337931,3.23324138 9.59958621,3.14827586 10.2216552,3.14827586 C11.6948966,3.14827586 12.3685517,3.83103448 12.3685517,5.07062069 L12.3685517,8.27655172 C12.3715862,8.44344828 12.3169655,8.55117241 12.1682759,8.624 Z M11.1107586,6.25255172 L10.0835862,6.25255172 C9.61475862,6.25255172 8.86524138,6.3177931 8.86524138,7.172 C8.86524138,7.78041379 9.31586207,7.99282759 9.99862069,7.99282759 C10.201931,7.99282759 10.736,7.96096552 11.1092414,7.82289655 L11.1092414,6.25255172 L11.1107586,6.25255172 Z" id="Shape"></path>
                    <path d="M15.7671724,8.99875862 C15.0525517,8.99875862 14.2408276,8.89406897 13.5990345,8.61489655 C13.4715862,8.56331034 13.4397241,8.48441379 13.4397241,8.35696552 L13.4397241,1.26537931 C13.4397241,1.10455172 13.5049655,1.07268966 13.6551724,1.07268966 L14.4881379,1.07268966 C14.6383448,1.07268966 14.6914483,1.09544828 14.6914483,1.26537931 L14.6914483,3.33793103 C15.1071724,3.20896552 15.6427586,3.14524138 16.0281379,3.14524138 C17.7365517,3.14524138 18.4724138,4.35144828 18.4724138,6.01737931 C18.4708966,7.7257931 17.6591724,8.99875862 15.7671724,8.99875862 Z M15.8217931,4.21186207 C15.5972414,4.21186207 15.1496552,4.24524138 14.689931,4.3817931 L14.689931,7.80013793 C15.0328276,7.90786207 15.437931,7.94124138 15.714069,7.94124138 C16.6031724,7.94124138 17.1903448,7.42841379 17.1903448,6.07351724 C17.1903448,4.83393103 16.6775172,4.21186207 15.8217931,4.21186207 Z" id="Shape"></path>
                    <path d="M21.6783448,8.624 C21.6995862,8.76510345 21.6889655,8.79544828 21.5493793,8.86068966 C21.2717241,8.96537931 20.856,8.99875862 20.5768276,8.99875862 C19.7863448,8.99875862 19.4237241,8.668 19.4237241,7.75006897 L19.4237241,1.25475862 C19.4237241,1.09696552 19.4874483,1.0742069 19.6270345,1.0742069 L20.4706207,1.0742069 C20.6208276,1.0742069 20.6845517,1.09696552 20.6845517,1.25475862 L20.6845517,7.45117241 C20.6845517,7.82441379 20.7710345,7.93213793 21.0486897,7.93213793 C21.1655172,7.93213793 21.3369655,7.90937931 21.4325517,7.89875862 C21.5493793,7.88965517 21.5918621,7.91089655 21.6024828,8.02924138 L21.6783448,8.624 Z" id="Shape"></path>
                    <path d="M26.6033103,8.624 C25.9721379,8.9137931 25.1073103,8.99875862 24.4230345,8.99875862 C22.5416552,8.99875862 22.0288276,8.18855172 22.0288276,7.21448276 C22.0288276,6.2222069 22.66,5.30124138 24.3593103,5.30124138 L25.5548966,5.30124138 L25.5548966,5.1222069 C25.5548966,4.576 25.3743448,4.18151724 24.4548966,4.18151724 C23.973931,4.18151724 23.3215172,4.28924138 22.9695172,4.39696552 C22.8177931,4.43944828 22.754069,4.4182069 22.7222069,4.29075862 L22.5735172,3.68234483 C22.5401379,3.564 22.5613793,3.50027586 22.6691034,3.45475862 C23.2668966,3.23324138 24.0361379,3.14827586 24.6566897,3.14827586 C26.129931,3.14827586 26.8035862,3.83103448 26.8035862,5.07062069 L26.8035862,8.27655172 C26.8051034,8.44344828 26.7504828,8.55117241 26.6033103,8.624 Z M25.5442759,6.25255172 L24.5186207,6.25255172 C24.0467586,6.25255172 23.2987586,6.3177931 23.2987586,7.172 C23.2987586,7.78041379 23.7493793,7.99282759 24.4321379,7.99282759 C24.6354483,7.99282759 25.1695172,7.96096552 25.5427586,7.82289655 L25.5427586,6.25255172 L25.5442759,6.25255172 Z" id="Shape"></path>
                    <path d="M28.9110345,8.88193103 L28.0750345,8.88193103 C27.9369655,8.88193103 27.8747586,8.84855172 27.8747586,8.69834483 L27.8747586,4.15875862 C27.8747586,3.64441379 27.9794483,3.37737931 28.5893793,3.24234483 C28.8048276,3.19986207 29.5088276,3.14675862 29.8502069,3.14675862 C30.7150345,3.14675862 31.3037241,3.30606897 31.7725517,3.68234483 C32.2656552,3.35006897 32.9817931,3.14675862 33.7388966,3.14675862 C35.5125517,3.14675862 36.2074483,4.21337931 36.2074483,5.764 L36.2074483,8.70137931 C36.2074483,8.8622069 36.1543448,8.88496552 35.9935172,8.88496552 L35.1711724,8.88496552 C35.0315862,8.88496552 34.9678621,8.85158621 34.9678621,8.70137931 L34.9678621,5.92331034 C34.9678621,4.78234483 34.6052414,4.22703448 33.578069,4.22703448 C33.2169655,4.22703448 32.6813793,4.33172414 32.4037241,4.48193103 C32.5736552,4.87944828 32.6191724,5.33613793 32.6191724,5.87172414 L32.6191724,8.70137931 C32.6191724,8.8622069 32.566069,8.88496552 32.4037241,8.88496552 L31.5707586,8.88496552 C31.4311724,8.88496552 31.3674483,8.85158621 31.3674483,8.70137931 L31.3674483,5.84896552 C31.3674483,4.8582069 31.1216552,4.21489655 29.9245517,4.21489655 C29.7546207,4.21489655 29.3161379,4.23613793 29.1143448,4.27862069 L29.1143448,8.70137931 C29.1143448,8.86068966 29.0718621,8.88193103 28.9110345,8.88193103 Z" id="Shape"></path>
                    <path d="M39.6288276,8.99875862 C37.9082759,8.99875862 37.0646897,7.97158621 37.0646897,6.08262069 C37.0646897,4.21337931 38.1328276,3.14524138 39.6606897,3.14524138 C41.36,3.14524138 42.2445517,4.24675862 42.2445517,6.05075862 C42.2430345,7.93213793 41.3584828,8.99875862 39.6288276,8.99875862 Z M39.6804138,4.19365517 C38.7624828,4.19365517 38.324,4.99172414 38.324,6.05227586 C38.324,7.22662069 38.6547586,7.95337931 39.6364138,7.95337931 C40.6408276,7.95337931 40.9715862,7.07793103 40.9715862,6.08413793 C40.9715862,5.05696552 40.7166897,4.19365517 39.6804138,4.19365517 Z" id="Shape"></path>
                    <path d="M45.0438621,8.99875862 C44.3489655,8.99875862 43.4735172,8.8697931 42.8742069,8.52841379 C42.7786207,8.47531034 42.7361379,8.40096552 42.7998621,8.27351724 L43.0577931,7.67268966 C43.12,7.54524138 43.1746207,7.51489655 43.333931,7.57710345 C43.8467586,7.81227586 44.5431724,7.96248276 45.0226207,7.96248276 C45.621931,7.96248276 45.9208276,7.70758621 45.9208276,7.33282759 C45.9208276,6.9262069 45.5248276,6.72441379 44.7662069,6.44524138 C43.6115862,6.01737931 43.025931,5.62289655 43.025931,4.75958621 C43.025931,3.82951724 43.7086897,3.14675862 45.0226207,3.14675862 C45.621931,3.14675862 46.2288276,3.25296552 46.7841379,3.47751724 C46.9009655,3.52910345 46.9131034,3.61710345 46.8797241,3.73393103 L46.633931,4.34386207 C46.5929655,4.46068966 46.5292414,4.46068966 46.42,4.4182069 C45.8662069,4.22551724 45.4914483,4.16027586 45.0104828,4.16027586 C44.4855172,4.16027586 44.2518621,4.42731034 44.2518621,4.69434483 C44.2518621,5.08124138 44.5492414,5.23903448 45.3412414,5.54096552 C46.2591724,5.88234483 47.1452414,6.2662069 47.1452414,7.31310345 C47.1482759,8.45406897 46.2409655,8.99875862 45.0438621,8.99875862 Z" id="Shape"></path>
                    <path d="M51.6377931,8.88193103 L50.8033103,8.88193103 C50.6652414,8.88193103 50.6,8.84855172 50.6,8.69834483 L50.6,4.15875862 C50.6,3.64441379 50.7077241,3.37737931 51.3176552,3.24234483 C51.530069,3.19986207 52.234069,3.14675862 52.5769655,3.14675862 C53.4417931,3.14675862 54.0289655,3.30606897 54.5008276,3.68234483 C54.9908966,3.35006897 55.7070345,3.14675862 56.4671724,3.14675862 C58.2408276,3.14675862 58.9342069,4.21337931 58.9342069,5.764 L58.9342069,8.70137931 C58.9342069,8.8622069 58.8795862,8.88496552 58.7217931,8.88496552 L57.897931,8.88496552 C57.7568276,8.88496552 57.6946207,8.85158621 57.6946207,8.70137931 L57.6946207,5.92331034 C57.6946207,4.78234483 57.332,4.22703448 56.3048276,4.22703448 C55.9422069,4.22703448 55.4066207,4.33172414 55.132,4.48193103 C55.3034483,4.87944828 55.345931,5.33613793 55.345931,5.87172414 L55.345931,8.70137931 C55.345931,8.8622069 55.2913103,8.88496552 55.132,8.88496552 L54.2975172,8.88496552 C54.1594483,8.88496552 54.0926897,8.85158621 54.0926897,8.70137931 L54.0926897,5.84896552 C54.0926897,4.8582069 53.8484138,4.21489655 52.6528276,4.21489655 C52.4813793,4.21489655 52.0428966,4.23613793 51.8411034,4.27862069 L51.8411034,8.70137931 C51.8395862,8.86068966 51.7971034,8.88193103 51.6377931,8.88193103 Z" id="Shape"></path>
                    <path d="M60.845931,2.57931034 C60.4195862,2.57931034 60.0782069,2.23641379 60.0782069,1.80855172 C60.0782069,1.38372414 60.4195862,1.04082759 60.845931,1.04082759 C61.2737931,1.04082759 61.6151724,1.38372414 61.6151724,1.80855172 C61.6151724,2.23793103 61.2737931,2.57931034 60.845931,2.57931034 Z M61.241931,8.88193103 L60.4195862,8.88193103 C60.2784828,8.88193103 60.2162759,8.84855172 60.2162759,8.69834483 L60.2162759,3.45172414 C60.2162759,3.30455172 60.2784828,3.27268966 60.4195862,3.27268966 L61.241931,3.27268966 C61.4012414,3.27268966 61.4558621,3.29544828 61.4558621,3.45172414 L61.4558621,8.69834483 C61.4543448,8.86068966 61.4012414,8.88193103 61.241931,8.88193103 Z" id="Shape"></path>
                    <path d="M63.8591724,8.88193103 L63.0353103,8.88193103 C62.8972414,8.88193103 62.8335172,8.84855172 62.8335172,8.69834483 L62.8335172,4.11627586 C62.8335172,3.54882759 62.9731034,3.29393103 63.5815172,3.20744828 C63.8364138,3.17558621 64.1049655,3.15434483 64.372,3.15434483 C65.2353103,3.15434483 66.0697931,3.36827586 66.7222069,3.90234483 C66.8162759,3.97668966 66.7965517,4.03889655 66.754069,4.10565517 L66.2609655,4.81117241 C66.1866207,4.928 66.1228966,4.884 66.0288276,4.82027586 C65.6206897,4.4697931 65.1412414,4.26648276 64.5753103,4.26648276 C64.4053793,4.26648276 64.2324138,4.27558621 64.0715862,4.30593103 L64.0715862,8.69834483 C64.0715862,8.86068966 64.0184828,8.88193103 63.8591724,8.88193103 Z" id="Shape"></path>
                    <path d="M71.4772414,8.624 C70.846069,8.9137931 69.9827586,8.99875862 69.2969655,8.99875862 C67.4186207,8.99875862 66.9042759,8.18855172 66.9042759,7.21448276 C66.9042759,6.2222069 67.5354483,5.30124138 69.2332414,5.30124138 L70.4288276,5.30124138 L70.4288276,5.1222069 C70.4288276,4.576 70.2482759,4.18151724 69.3273103,4.18151724 C68.8478621,4.18151724 68.1954483,4.28924138 67.8434483,4.39696552 C67.6917241,4.43944828 67.6295172,4.4182069 67.5976552,4.29075862 L67.445931,3.68234483 C67.4155862,3.564 67.4368276,3.50027586 67.5415172,3.45475862 C68.1423448,3.23324138 68.9085517,3.14827586 69.5306207,3.14827586 C71.0053793,3.14827586 71.6775172,3.83103448 71.6775172,5.07062069 L71.6775172,8.27655172 C71.6805517,8.44344828 71.625931,8.55117241 71.4772414,8.624 Z M70.4197241,6.25255172 L69.394069,6.25255172 C68.9237241,6.25255172 68.1757241,6.3177931 68.1757241,7.172 C68.1757241,7.78041379 68.6248276,7.99282759 69.3091034,7.99282759 C69.5124138,7.99282759 70.0449655,7.96096552 70.4182069,7.82289655 L70.4182069,6.25255172 L70.4197241,6.25255172 Z M68.9874483,2.56717241 C68.8706207,2.52468966 68.8706207,2.46096552 68.9115862,2.35324138 L69.6383448,0.602344828 C69.6914483,0.485517241 69.7657931,0.441517241 69.9053793,0.485517241 L70.802069,0.731310345 C70.9204138,0.761655172 70.9310345,0.836 70.8794483,0.910344828 L69.6702069,2.62027586 C69.5852414,2.74924138 69.5321379,2.74924138 69.425931,2.71586207 L68.9874483,2.56717241 Z" id="Shape"></path>
                    <path d="M73.9882759,4.27558621 L73.9882759,8.69834483 C73.9882759,8.85917241 73.9473103,8.88193103 73.7849655,8.88193103 L72.952,8.88193103 C72.8124138,8.88193103 72.7486897,8.84855172 72.7486897,8.69834483 L72.7486897,4.12689655 C72.7486897,3.61406897 72.8867586,3.33641379 73.4648276,3.24082759 C73.7622069,3.19834483 74.4904828,3.14524138 74.8637241,3.14524138 C76.7542069,3.14524138 77.5993103,3.90386207 77.5993103,5.87931034 L77.5993103,8.69834483 C77.5993103,8.85917241 77.5568276,8.88193103 77.396,8.88193103 L76.5524138,8.88193103 C76.4128276,8.88193103 76.3475862,8.84855172 76.3475862,8.69834483 L76.3475862,5.85806897 C76.3475862,4.74593103 76.0274483,4.21186207 74.8303448,4.21186207 C74.6831724,4.21186207 74.3721379,4.21186207 73.9882759,4.27558621 Z" id="Shape"></path>
                    <path d="M81.0722759,3.15586207 C81.349931,3.15586207 81.7550345,3.16648276 82.2147586,3.2817931 L82.2147586,1.26537931 C82.2147586,1.10455172 82.2678621,1.0817931 82.4302069,1.0817931 L83.2616552,1.0817931 C83.4012414,1.0817931 83.4664828,1.10455172 83.4664828,1.26537931 L83.4664828,8.34786207 C83.4664828,8.88344828 81.5213793,8.99875862 81.0297931,8.99875862 C79.1271724,8.99875862 78.458069,7.85627586 78.458069,6.15696552 C78.4550345,4.55324138 79.2333793,3.15586207 81.0722759,3.15586207 Z M81.1997241,7.94124138 C81.5001379,7.94124138 81.9704828,7.87751724 82.2147586,7.78193103 L82.2147586,4.35144828 C81.7777931,4.24675862 81.4788966,4.224 81.1906207,4.224 C80.3546207,4.224 79.7462069,4.76717241 79.7462069,6.15544828 C79.7462069,7.47241379 80.2817931,7.94124138 81.1997241,7.94124138 Z" id="Shape"></path>
                    <path d="M86.8969655,8.99875862 C85.1733793,8.99875862 84.3328276,7.97158621 84.3328276,6.08262069 C84.3328276,4.21337931 85.3994483,3.14524138 86.9273103,3.14524138 C88.6266207,3.14524138 89.5126897,4.24675862 89.5126897,6.05075862 C89.5126897,7.93213793 88.6266207,8.99875862 86.8969655,8.99875862 Z M86.9485517,4.19365517 C86.0291034,4.19365517 85.5906207,4.99172414 85.5906207,6.05227586 C85.5906207,7.22662069 85.9228966,7.95337931 86.9030345,7.95337931 C87.9074483,7.95337931 88.2397241,7.07793103 88.2397241,6.08413793 C88.2412414,5.05696552 87.9848276,4.19365517 86.9485517,4.19365517 Z" id="Shape"></path>
                    <path d="M93.6577931,8.83944828 C93.1768276,8.98813793 92.6321379,8.99724138 92.3651034,8.99724138 C91.1998621,8.99724138 90.7613793,8.50565517 90.7613793,7.48151724 L90.7613793,4.224 L90.0027586,4.224 C89.8525517,4.224 89.8313103,4.14965517 89.8313103,4.04041379 L89.8313103,3.60496552 C89.8313103,3.476 89.8631724,3.43503448 90.0027586,3.40165517 L90.8144828,3.21958621 L90.954069,2.20455172 C90.9753103,2.04524138 91.0405517,2.01186207 91.1892414,1.95875862 L91.8067586,1.74482759 C91.9251034,1.72510345 91.9994483,1.75544828 91.9994483,1.91475862 L91.9994483,3.27268966 L93.1434483,3.27268966 C93.2936552,3.27268966 93.3133793,3.34855172 93.3133793,3.44413793 L93.3133793,4.04041379 C93.3133793,4.17089655 93.3027586,4.224 93.1434483,4.224 L91.9994483,4.224 L91.9994483,7.3222069 C91.9994483,7.7697931 92.2148966,7.92 92.6518621,7.92 C92.8324138,7.92 93.2496552,7.87903448 93.4529655,7.84565517 C93.5910345,7.82289655 93.6228966,7.85627586 93.6335172,7.95186207 L93.7518621,8.63613793 C93.764,8.72110345 93.7852414,8.78634483 93.6577931,8.83944828 Z" id="Shape"></path>
                    <path d="M99,5.50455172 C99,6.25255172 98.6282759,6.43462069 98.1457931,6.44524138 L95.3070345,6.44524138 C95.3282759,7.55586207 95.9776552,7.93062069 96.8,7.93062069 C97.2506207,7.93062069 97.730069,7.80013793 98.0502069,7.64234483 C98.1776552,7.58924138 98.2307586,7.59986207 98.2853793,7.70758621 L98.5721379,8.31296552 C98.6267586,8.4297931 98.604,8.50565517 98.4977931,8.5617931 C97.9637241,8.89255172 97.2688276,8.99724138 96.6922759,8.99724138 C94.9717241,8.99724138 94.034069,8.11117241 94.034069,6.10234483 C94.034069,4.23310345 95.1006897,3.14524138 96.586069,3.14524138 C98.2186207,3.14524138 99,4.05406897 99,5.50455172 Z M95.3464828,5.54703448 L97.8028966,5.54703448 C97.8028966,4.78841379 97.5677241,4.18151724 96.6073103,4.18151724 C95.8471724,4.18151724 95.3889655,4.83393103 95.3464828,5.54703448 Z" id="Shape"></path>
                    <path d="M106.851724,8.624 C106.223586,8.9137931 105.357241,8.99875862 104.672966,8.99875862 C102.793103,8.99875862 102.280276,8.18855172 102.280276,7.21448276 C102.280276,6.2222069 102.909931,5.30124138 104.607724,5.30124138 L105.80331,5.30124138 L105.80331,5.1222069 C105.80331,4.576 105.622759,4.18151724 104.70331,4.18151724 C104.223862,4.18151724 103.571448,4.28924138 103.217931,4.39696552 C103.067724,4.43944828 103.004,4.4182069 102.973655,4.29075862 L102.821931,3.68234483 C102.790069,3.564 102.81131,3.50027586 102.917517,3.45475862 C103.516828,3.23324138 104.283034,3.14827586 104.905103,3.14827586 C106.379862,3.14827586 107.053517,3.83103448 107.053517,5.07062069 L107.053517,8.27655172 C107.056552,8.44344828 107.001931,8.55117241 106.851724,8.624 Z M105.795724,6.25255172 L104.770069,6.25255172 C104.298207,6.25255172 103.551724,6.3177931 103.551724,7.172 C103.551724,7.78041379 103.99931,7.99282759 104.683586,7.99282759 C104.888414,7.99282759 105.419448,7.96096552 105.794207,7.82289655 L105.794207,6.25255172 L105.795724,6.25255172 Z" id="Shape"></path>
                    <path d="M113.146759,8.624 C113.168,8.76510345 113.157379,8.79544828 113.017793,8.86068966 C112.741655,8.96537931 112.324414,8.99875862 112.046759,8.99875862 C111.256276,8.99875862 110.892138,8.668 110.892138,7.75006897 L110.892138,1.25475862 C110.892138,1.09696552 110.957379,1.0742069 111.093931,1.0742069 L111.939034,1.0742069 C112.089241,1.0742069 112.154483,1.09696552 112.154483,1.25475862 L112.154483,7.45117241 C112.154483,7.82441379 112.237931,7.93213793 112.517103,7.93213793 C112.633931,7.93213793 112.803862,7.90937931 112.902483,7.89875862 C113.017793,7.88965517 113.060276,7.91089655 113.072414,8.02924138 L113.146759,8.624 Z" id="Shape"></path>
                    <path d="M116.064414,8.99875862 C114.342345,8.99875862 113.500276,7.97158621 113.500276,6.08262069 C113.500276,4.21337931 114.568414,3.14524138 116.094759,3.14524138 C117.795586,3.14524138 118.681655,4.24675862 118.681655,6.05075862 C118.680138,7.93213793 117.794069,8.99875862 116.064414,8.99875862 Z M116.117517,4.19365517 C115.198069,4.19365517 114.759586,4.99172414 114.759586,6.05227586 C114.759586,7.22662069 115.090345,7.95337931 116.073517,7.95337931 C117.076414,7.95337931 117.407172,7.07793103 117.407172,6.08413793 C117.407172,5.05696552 117.152276,4.19365517 116.117517,4.19365517 Z" id="Shape"></path>
                    <path d="M121.479448,8.99875862 C120.786069,8.99875862 119.909103,8.8697931 119.31131,8.52841379 C119.215724,8.47531034 119.173241,8.40096552 119.236966,8.27351724 L119.491862,7.67268966 C119.557103,7.54524138 119.611724,7.51489655 119.769517,7.57710345 C120.283862,7.81227586 120.978759,7.96248276 121.459724,7.96248276 C122.057517,7.96248276 122.356414,7.70758621 122.356414,7.33282759 C122.356414,6.9262069 121.960414,6.72441379 121.201793,6.44524138 C120.04869,6.01737931 119.461517,5.62289655 119.461517,4.75958621 C119.461517,3.82951724 120.144276,3.14675862 121.459724,3.14675862 C122.057517,3.14675862 122.665931,3.25296552 123.221241,3.47751724 C123.338069,3.52910345 123.350207,3.61710345 123.31531,3.73393103 L123.071034,4.34386207 C123.028552,4.46068966 122.964828,4.46068966 122.857103,4.4182069 C122.301793,4.22551724 121.928552,4.16027586 121.446069,4.16027586 C120.921103,4.16027586 120.687448,4.42731034 120.687448,4.69434483 C120.687448,5.08124138 120.986345,5.23903448 121.776828,5.54096552 C122.696276,5.88234483 123.582345,6.2662069 123.582345,7.31310345 C123.585379,8.45406897 122.675034,8.99875862 121.479448,8.99875862 Z" id="Shape"></path>
                    <path d="M129.38731,8.99875862 C127.666759,8.99875862 126.82469,7.97158621 126.82469,6.08262069 C126.82469,4.21337931 127.892828,3.14524138 129.42069,3.14524138 C131.118483,3.14524138 132.004552,4.24675862 132.004552,6.05075862 C132.003034,7.93213793 131.116966,8.99875862 129.38731,8.99875862 Z M129.440414,4.19365517 C128.522483,4.19365517 128.082483,4.99172414 128.082483,6.05227586 C128.082483,7.22662069 128.414759,7.95337931 129.396414,7.95337931 C130.39931,7.95337931 130.733103,7.07793103 130.733103,6.08413793 C130.734621,5.05696552 130.475172,4.19365517 129.440414,4.19365517 Z" id="Shape"></path>
                    <path d="M134.406345,8.05958621 C134.406345,10.1108966 133.553655,10.8588966 132.462759,11.2321379 C132.314069,11.2746207 132.248828,11.2427586 132.218483,11.1456552 L131.949931,10.3991724 C131.898345,10.2595862 131.949931,10.2277241 132.069793,10.164 C132.998345,9.72551724 133.159172,9.05489655 133.159172,8.19917241 L133.159172,3.45324138 C133.159172,3.30606897 133.221379,3.2742069 133.360966,3.2742069 L134.206069,3.2742069 C134.365379,3.2742069 134.407862,3.29696552 134.407862,3.45324138 L134.407862,8.05958621 L134.406345,8.05958621 Z M133.78731,2.57931034 C133.371586,2.57931034 133.019586,2.23641379 133.019586,1.80855172 C133.019586,1.38372414 133.370069,1.04082759 133.78731,1.04082759 C134.215172,1.04082759 134.558069,1.38372414 134.558069,1.80855172 C134.558069,2.23793103 134.215172,2.57931034 133.78731,2.57931034 Z" id="Shape"></path>
                    <path d="M138.072,8.99875862 C136.351448,8.99875862 135.509379,7.97158621 135.509379,6.08262069 C135.509379,4.21337931 136.577517,3.14524138 138.103862,3.14524138 C139.803172,3.14524138 140.690759,4.24675862 140.690759,6.05075862 C140.690759,7.93213793 139.803172,8.99875862 138.072,8.99875862 Z M138.126621,4.19365517 C137.20869,4.19365517 136.770207,4.99172414 136.770207,6.05227586 C136.770207,7.22662069 137.100966,7.95337931 138.084138,7.95337931 C139.088552,7.95337931 139.417793,7.07793103 139.417793,6.08413793 C139.417793,5.05696552 139.162897,4.19365517 138.126621,4.19365517 Z" id="Shape"></path>
                    <path d="M143.490069,8.99875862 C142.795172,8.99875862 141.921241,8.8697931 141.320414,8.52841379 C141.226345,8.47531034 141.180828,8.40096552 141.246069,8.27351724 L141.504,7.67268966 C141.566207,7.54524138 141.61931,7.51489655 141.781655,7.57710345 C142.294483,7.81227586 142.987862,7.96248276 143.46731,7.96248276 C144.068138,7.96248276 144.365517,7.70758621 144.365517,7.33282759 C144.365517,6.9262069 143.971034,6.72441379 143.212414,6.44524138 C142.057793,6.01737931 141.472138,5.62289655 141.472138,4.75958621 C141.472138,3.82951724 142.156414,3.14675862 143.46731,3.14675862 C144.068138,3.14675862 144.676552,3.25296552 145.231862,3.47751724 C145.347172,3.52910345 145.35931,3.61710345 145.325931,3.73393103 L145.080138,4.34386207 C145.039172,4.46068966 144.973931,4.46068966 144.866207,4.4182069 C144.312414,4.22551724 143.937655,4.16027586 143.45669,4.16027586 C142.931724,4.16027586 142.698069,4.42731034 142.698069,4.69434483 C142.698069,5.08124138 142.996966,5.23903448 143.785931,5.54096552 C144.705379,5.88234483 145.591448,6.2662069 145.591448,7.31310345 C145.592966,8.45406897 144.685655,8.99875862 143.490069,8.99875862 Z" id="Shape"></path>
                </g>
            </g>
        </g>
    </g>
</svg>