<?xml version="1.1" encoding="UTF-8"?>
<svg width="98" height="97" viewBox="0 0 98 97" fill="none"
  xmlns="http://www.w3.org/2000/svg" version="1.1">
  <g clip-path="url(#clip0_2830_3696)">
    <path fill-rule="evenodd" clip-rule="evenodd" d="M49.1388 97C75.9668 97 97.7151 75.2858 97.7151 48.5C97.7151 21.7142 75.9668 0 49.1388 0C22.3109 0 0.5625 21.7142 0.5625 48.5C0.5625 75.2858 22.3109 97 49.1388 97Z" fill="#272727" stroke="#CECECE" stroke-width="4"/>
    <path d="M40.168 46.3428L45.834 51.9999" stroke="white" stroke-width="3.8" stroke-linecap="round" stroke-linejoin="round"/>
    <path d="M32.6133 52.0003L48.6671 35.9717" stroke="white" stroke-width="3.8" stroke-linecap="round" stroke-linejoin="round"/>
    <path fill-rule="evenodd" clip-rule="evenodd" d="M56.2217 37.8571C61.4372 37.8571 65.6651 33.6358 65.6651 28.4286C65.6651 23.2213 61.4372 19 56.2217 19C51.0063 19 46.7783 23.2213 46.7783 28.4286C46.7783 33.6358 51.0063 37.8571 56.2217 37.8571Z" stroke="white" stroke-width="3.8" stroke-linecap="round" stroke-linejoin="round"/>
    <path d="M22.9678 77.226C21.4648 77.226 21.0418 76.155 21.0418 74.94C21.0418 73.716 21.5908 72.483 22.9138 72.483C23.3818 72.483 23.8228 72.591 24.1918 72.744C24.2998 72.789 24.3268 72.753 24.3718 72.672L24.5968 72.204C24.6688 72.069 24.6238 72.015 24.5518 71.979C23.9488 71.673 23.3818 71.61 22.8778 71.61C21.2128 71.61 20.0878 72.933 20.0878 74.94C20.0878 77.118 21.0958 78.099 22.8058 78.099C23.4088 78.099 24.1648 78.027 24.7318 77.685C24.8128 77.631 24.8578 77.595 24.7768 77.433L24.5878 77.001C24.5608 76.938 24.5068 76.857 24.3538 76.92C23.9578 77.082 23.4898 77.226 22.9678 77.226ZM27.2835 77.802L27.2295 77.406C27.2205 77.316 27.1845 77.298 27.0945 77.307C27.0045 77.316 26.8785 77.325 26.7705 77.325C26.5545 77.325 26.4735 77.253 26.4735 76.929V71.565C26.4735 71.439 26.4285 71.421 26.3115 71.421H25.7355C25.6185 71.421 25.5735 71.439 25.5735 71.565V77.172C25.5735 77.811 25.8165 78.099 26.4465 78.099C26.6535 78.099 26.9595 78.081 27.1845 77.991C27.2925 77.937 27.2925 77.91 27.2835 77.802ZM31.6414 77.532V74.778C31.6414 73.761 31.1014 73.176 29.8864 73.176C29.4094 73.176 28.7344 73.248 28.2574 73.437C28.1674 73.473 28.1584 73.536 28.1764 73.608L28.2934 74.049C28.3204 74.157 28.3744 74.157 28.4914 74.121C28.7614 74.04 29.3014 73.941 29.7334 73.941C30.5704 73.941 30.7504 74.292 30.7504 74.823V74.985H29.7244C28.2034 74.985 27.7264 75.813 27.7264 76.596C27.7264 77.397 28.1224 78.099 29.6884 78.099C30.2554 78.099 30.9574 78.027 31.4884 77.793C31.5874 77.748 31.6414 77.667 31.6414 77.532ZM30.7414 77.217C30.3724 77.343 29.8774 77.37 29.6794 77.37C29.0404 77.37 28.6174 77.181 28.6174 76.596C28.6174 75.795 29.3374 75.741 29.7784 75.741H30.7414V77.217ZM36.4744 73.374C36.4924 73.311 36.4654 73.275 36.3934 73.275H35.7274C35.6374 73.275 35.6104 73.302 35.5924 73.365L34.8544 75.696L34.4043 77.217H34.3504L33.8823 75.678L33.1173 73.365C33.0994 73.302 33.0724 73.275 32.9823 73.275H32.2983C32.2263 73.275 32.1993 73.311 32.2173 73.374L33.6663 77.631C33.7924 77.991 33.9274 78.045 34.1704 78.045H34.5664C34.8724 78.045 34.9624 77.937 35.0703 77.622L36.4744 73.374ZM38.976 73.176C37.788 73.176 36.87 74.085 36.87 75.66C36.87 77.361 37.689 78.099 39.066 78.099C39.543 78.099 40.083 78.027 40.542 77.757C40.632 77.712 40.641 77.649 40.596 77.55L40.38 77.127C40.335 77.037 40.29 77.028 40.191 77.073C39.948 77.208 39.525 77.334 39.129 77.334C38.391 77.334 37.779 76.956 37.761 75.912H40.209C40.605 75.903 40.956 75.768 40.956 75.138C40.956 73.959 40.335 73.176 38.976 73.176ZM40.119 75.21H37.797C37.833 74.571 38.247 73.914 38.985 73.914C39.903 73.914 40.119 74.499 40.119 75.21ZM48.2058 74.823C48.2058 76.173 47.7738 77.154 46.3068 77.154H45.1368V72.528H46.2798C47.7558 72.528 48.2058 73.545 48.2058 74.823ZM46.4148 78C48.3048 78 49.1598 76.686 49.1598 74.805C49.1598 72.897 48.1878 71.673 46.3248 71.682L44.6778 71.691C44.3268 71.691 44.1918 71.835 44.1918 72.177V77.514C44.1918 77.856 44.3268 78 44.6778 78H46.4148ZM51.2993 72.042C51.2993 71.718 51.0383 71.457 50.7143 71.457C50.3903 71.457 50.1293 71.718 50.1293 72.042C50.1293 72.366 50.3903 72.627 50.7143 72.627C51.0383 72.627 51.2993 72.366 51.2993 72.042ZM51.1463 77.856V73.419C51.1463 73.293 51.1013 73.275 50.9843 73.275H50.4263C50.3183 73.275 50.2643 73.293 50.2643 73.419V77.856C50.2643 77.982 50.3183 78 50.4263 78H50.9843C51.1013 78 51.1463 77.982 51.1463 77.856ZM56.2998 77.856V75.453C56.2998 73.824 55.6338 73.176 54.0858 73.176C53.7978 73.176 53.2398 73.212 52.9878 73.248C52.4838 73.32 52.3578 73.563 52.3578 74.004V77.856C52.3578 77.982 52.4118 78 52.5198 78H53.0778C53.1948 78 53.2398 77.982 53.2398 77.856V74.022C53.6088 73.959 53.8788 73.959 54.0138 73.959C55.1208 73.959 55.4178 74.454 55.4178 75.48V77.856C55.4178 77.982 55.4718 78 55.5798 78H56.1378C56.2548 78 56.2998 77.982 56.2998 77.856ZM61.0557 77.532V74.778C61.0557 73.761 60.5157 73.176 59.3007 73.176C58.8237 73.176 58.1487 73.248 57.6717 73.437C57.5817 73.473 57.5727 73.536 57.5907 73.608L57.7077 74.049C57.7347 74.157 57.7887 74.157 57.9057 74.121C58.1757 74.04 58.7157 73.941 59.1477 73.941C59.9847 73.941 60.1647 74.292 60.1647 74.823V74.985H59.1387C57.6177 74.985 57.1407 75.813 57.1407 76.596C57.1407 77.397 57.5367 78.099 59.1027 78.099C59.6697 78.099 60.3717 78.027 60.9027 77.793C61.0017 77.748 61.0557 77.667 61.0557 77.532ZM60.1557 77.217C59.7867 77.343 59.2917 77.37 59.0937 77.37C58.4547 77.37 58.0317 77.181 58.0317 76.596C58.0317 75.795 58.7517 75.741 59.1927 75.741H60.1557V77.217ZM59.1297 72.78C59.2197 72.807 59.2647 72.798 59.3367 72.699L60.3267 71.322C60.3717 71.259 60.3627 71.196 60.2637 71.178L59.5707 70.989C59.4537 70.971 59.4087 71.016 59.3817 71.079L58.7877 72.501C58.7337 72.618 58.7517 72.645 58.8417 72.672L59.1297 72.78ZM68.9667 77.856V75.372C68.9667 74.067 68.4087 73.176 66.9507 73.176C66.2667 73.176 65.6817 73.347 65.2497 73.644C64.8627 73.311 64.3947 73.176 63.6747 73.176C63.4137 73.176 62.8647 73.212 62.7027 73.248C62.1717 73.365 62.0727 73.59 62.0727 74.04V77.856C62.0727 77.982 62.1267 78 62.2347 78H62.7927C62.9097 78 62.9547 77.982 62.9547 77.856V74.022C63.1257 73.986 63.5487 73.959 63.7107 73.959C64.8177 73.959 65.0337 74.562 65.0337 75.471V77.856C65.0337 77.982 65.0877 78 65.1957 78H65.7537C65.8707 78 65.9157 77.982 65.9157 77.856V75.462C65.9157 74.976 65.8887 74.562 65.7177 74.211C65.9787 74.067 66.4647 73.959 66.8157 73.959C67.7337 73.959 68.0847 74.445 68.0847 75.498V77.856C68.0847 77.982 68.1387 78 68.2467 78H68.8047C68.9217 78 68.9667 77.982 68.9667 77.856ZM71.2037 72.042C71.2037 71.718 70.9427 71.457 70.6187 71.457C70.2947 71.457 70.0337 71.718 70.0337 72.042C70.0337 72.366 70.2947 72.627 70.6187 72.627C70.9427 72.627 71.2037 72.366 71.2037 72.042ZM71.0507 77.856V73.419C71.0507 73.293 71.0057 73.275 70.8887 73.275H70.3307C70.2227 73.275 70.1687 73.293 70.1687 73.419V77.856C70.1687 77.982 70.2227 78 70.3307 78H70.8887C71.0057 78 71.0507 77.982 71.0507 77.856ZM74.2422 77.334C73.2342 77.334 72.9732 76.578 72.9732 75.687C72.9732 74.778 73.3422 73.968 74.2332 73.968C74.6112 73.968 74.9352 74.067 75.2142 74.184C75.3402 74.238 75.3672 74.202 75.4032 74.13L75.6102 73.698C75.6732 73.599 75.6372 73.536 75.5562 73.491C75.1512 73.266 74.7012 73.176 74.2152 73.176C72.9012 73.176 72.0822 74.166 72.0822 75.687C72.0822 77.271 72.8112 78.099 74.1162 78.099C74.5932 78.099 75.1962 78.036 75.6552 77.775C75.7362 77.73 75.7722 77.667 75.7092 77.568L75.5022 77.136C75.4662 77.064 75.4302 77.019 75.3132 77.082C75.0612 77.217 74.6382 77.334 74.2422 77.334ZM80.1867 77.532V74.778C80.1867 73.761 79.6467 73.176 78.4317 73.176C77.9547 73.176 77.2797 73.248 76.8027 73.437C76.7127 73.473 76.7037 73.536 76.7217 73.608L76.8387 74.049C76.8657 74.157 76.9197 74.157 77.0367 74.121C77.3067 74.04 77.8467 73.941 78.2787 73.941C79.1157 73.941 79.2957 74.292 79.2957 74.823V74.985H78.2697C76.7487 74.985 76.2717 75.813 76.2717 76.596C76.2717 77.397 76.6677 78.099 78.2337 78.099C78.8007 78.099 79.5027 78.027 80.0337 77.793C80.1327 77.748 80.1867 77.667 80.1867 77.532ZM79.2867 77.217C78.9177 77.343 78.4227 77.37 78.2247 77.37C77.5857 77.37 77.1627 77.181 77.1627 76.596C77.1627 75.795 77.8827 75.741 78.3237 75.741H79.2867V77.217Z" fill="white"/>
  </g>
  <defs>
    <clipPath id="clip0_2830_3696">
      <rect width="97.1526" height="97" fill="white" transform="translate(0.5625)"/>
    </clipPath>
  </defs>
</svg>
