<?xml version="1.1" encoding="UTF-8"?>
<svg xmlns="http://www.w3.org/2000/svg" xmlns:xlink="http://www.w3.org/1999/xlink" width="40px" height="396px" viewBox="0 0 40 396" version="1.1">
  <g id="financial-superintendence">
    <path style=" stroke:none;fill-rule:evenodd;fill:rgb(0%,0%,0%);fill-opacity:1;" d="M 11.886719 376.226562 L 23.308594 380.144531 L 11.886719 384.058594 L 11.886719 388.457031 L 28.113281 382.558594 L 28.113281 377.886719 L 11.886719 371.984375 Z M 25.222656 363.574219 L 14.777344 363.574219 L 14.777344 360.910156 L 11.886719 360.910156 L 11.886719 370.40625 L 14.777344 370.40625 L 14.777344 367.746094 L 25.222656 367.746094 L 25.222656 370.40625 L 28.113281 370.40625 L 28.113281 360.910156 L 25.222656 360.910156 Z M 27.199219 343.269531 L 19.167969 343.269531 L 19.167969 350.6875 L 22.207031 350.6875 L 22.207031 347.488281 L 25.425781 347.488281 C 25.449219 347.644531 25.449219 347.820312 25.457031 348.003906 C 25.46875 348.199219 25.46875 348.371094 25.46875 348.546875 C 25.46875 350.382812 24.988281 351.78125 24.042969 352.722656 C 23.085938 353.671875 21.710938 354.144531 19.917969 354.144531 C 19.035156 354.144531 18.273438 354.007812 17.59375 353.746094 C 16.914062 353.476562 16.355469 353.125 15.925781 352.65625 C 15.476562 352.1875 15.144531 351.652344 14.914062 351.039062 C 14.714844 350.453125 14.589844 349.792969 14.589844 349.058594 C 14.589844 348.410156 14.683594 347.824219 14.839844 347.273438 C 15.015625 346.710938 15.203125 346.21875 15.4375 345.789062 C 15.640625 345.441406 15.863281 345.054688 16.132812 344.683594 C 16.421875 344.285156 16.636719 343.984375 16.777344 343.789062 L 16.777344 343.320312 L 12.980469 343.320312 C 12.402344 344.5 12.023438 345.558594 11.835938 346.523438 C 11.640625 347.488281 11.558594 348.507812 11.558594 349.5625 C 11.558594 352.363281 12.320312 354.5625 13.867188 356.132812 C 15.421875 357.699219 17.453125 358.476562 19.980469 358.476562 C 22.621094 358.476562 24.703125 357.703125 26.207031 356.148438 C 27.714844 354.59375 28.460938 352.449219 28.460938 349.695312 C 28.460938 348.523438 28.324219 347.332031 28.042969 346.136719 C 27.765625 344.949219 27.484375 343.984375 27.199219 343.269531 Z M 11.886719 340.253906 L 14.777344 340.253906 L 14.777344 337.585938 L 25.222656 337.585938 L 25.222656 340.253906 L 28.113281 340.253906 L 28.113281 330.773438 L 25.222656 330.773438 L 25.222656 333.417969 L 14.777344 333.417969 L 14.777344 330.773438 L 11.886719 330.773438 Z M 11.886719 327.402344 L 28.113281 327.402344 L 28.113281 315.742188 L 24.980469 315.742188 L 24.980469 323.234375 L 11.886719 323.234375 Z M 11.886719 309.074219 L 28.113281 315.039062 L 28.113281 310.816406 L 24.804688 309.6875 L 24.804688 303.800781 L 28.113281 302.65625 L 28.113281 298.316406 L 11.886719 304.28125 Z M 21.863281 304.785156 L 21.863281 308.6875 L 16.152344 306.734375 Z M 28.113281 290.296875 C 28.113281 289.003906 28.027344 287.886719 27.832031 286.941406 C 27.652344 286.011719 27.308594 285.144531 26.828125 284.34375 C 26.195312 283.292969 25.273438 282.4375 24.070312 281.753906 C 22.878906 281.058594 21.53125 280.714844 20.03125 280.714844 C 18.453125 280.714844 17.089844 281.035156 15.925781 281.683594 C 14.777344 282.320312 13.855469 283.207031 13.171875 284.308594 C 12.761719 284.957031 12.449219 285.757812 12.230469 286.730469 C 12.011719 287.675781 11.886719 288.816406 11.886719 290.125 L 11.886719 296 L 28.113281 296 Z M 25.058594 291.824219 L 14.945312 291.824219 L 14.945312 290.769531 C 14.945312 289.882812 14.980469 289.214844 15.0625 288.773438 C 15.132812 288.324219 15.28125 287.894531 15.492188 287.464844 C 15.921875 286.632812 16.519531 286.035156 17.261719 285.644531 C 18.015625 285.25 18.929688 285.0625 19.988281 285.0625 C 21.070312 285.0625 21.964844 285.25 22.691406 285.578125 C 23.414062 285.9375 24.003906 286.492188 24.433594 287.246094 C 24.671875 287.695312 24.828125 288.15625 24.929688 288.597656 C 25.019531 289.066406 25.058594 289.777344 25.058594 290.769531 Z M 20.011719 261.851562 C 17.402344 261.851562 15.339844 262.582031 13.816406 264.0625 C 12.304688 265.542969 11.558594 267.585938 11.558594 270.164062 C 11.558594 272.757812 12.304688 274.785156 13.816406 276.269531 C 15.339844 277.738281 17.402344 278.46875 20.011719 278.46875 C 22.601562 278.46875 24.648438 277.738281 26.179688 276.269531 C 27.707031 274.785156 28.460938 272.757812 28.460938 270.164062 C 28.460938 267.566406 27.707031 265.519531 26.179688 264.039062 C 24.648438 262.582031 22.601562 261.851562 20.011719 261.851562 Z M 25.113281 271.664062 C 24.902344 272.152344 24.585938 272.578125 24.152344 272.945312 C 23.730469 273.296875 23.171875 273.585938 22.496094 273.804688 C 21.808594 274.015625 20.976562 274.128906 20.011719 274.128906 C 19.066406 274.128906 18.230469 274.015625 17.511719 273.792969 C 16.800781 273.574219 16.234375 273.261719 15.820312 272.917969 C 15.375 272.515625 15.070312 272.09375 14.875 271.625 C 14.695312 271.1875 14.589844 270.679688 14.589844 270.144531 C 14.589844 269.632812 14.695312 269.152344 14.890625 268.65625 C 15.089844 268.179688 15.410156 267.761719 15.851562 267.390625 C 16.273438 267.03125 16.835938 266.730469 17.503906 266.515625 C 18.183594 266.285156 19.023438 266.179688 20 266.179688 C 20.914062 266.179688 21.695312 266.28125 22.382812 266.460938 C 23.050781 266.664062 23.636719 266.964844 24.128906 267.371094 C 24.566406 267.730469 24.894531 268.160156 25.097656 268.625 C 25.308594 269.117188 25.414062 269.609375 25.414062 270.144531 C 25.414062 270.6875 25.316406 271.195312 25.113281 271.664062 Z M 13.558594 249.585938 C 14.34375 249.585938 14.972656 249.382812 15.464844 248.914062 C 15.957031 248.449219 16.296875 247.769531 16.503906 246.832031 C 16.601562 246.351562 16.671875 245.914062 16.734375 245.492188 C 16.800781 245.078125 16.882812 244.6875 16.984375 244.339844 C 17.105469 243.851562 17.273438 243.515625 17.503906 243.289062 C 17.734375 243.050781 18.089844 242.945312 18.5625 242.945312 C 19.125 242.945312 19.554688 243.1875 19.894531 243.671875 C 20.230469 244.171875 20.394531 244.839844 20.394531 245.714844 C 20.394531 246.324219 20.273438 246.984375 20.03125 247.695312 C 19.769531 248.398438 19.429688 249.007812 18.960938 249.550781 L 18.960938 249.65625 L 20.753906 249.65625 C 21.042969 249.007812 21.265625 248.398438 21.402344 247.789062 C 21.550781 247.175781 21.621094 246.492188 21.621094 245.714844 C 21.621094 245.007812 21.53125 244.394531 21.347656 243.886719 C 21.175781 243.390625 20.945312 242.953125 20.632812 242.558594 C 20.355469 242.214844 20.011719 241.949219 19.59375 241.753906 C 19.179688 241.558594 18.773438 241.46875 18.347656 241.46875 C 17.585938 241.46875 16.984375 241.667969 16.566406 242.066406 C 16.132812 242.464844 15.808594 243.054688 15.601562 243.839844 C 15.5 244.238281 15.410156 244.714844 15.300781 245.28125 C 15.214844 245.839844 15.132812 246.269531 15.0625 246.574219 C 14.914062 247.148438 14.734375 247.539062 14.476562 247.777344 C 14.222656 248 13.867188 248.113281 13.417969 248.113281 C 12.914062 248.113281 12.5 247.882812 12.179688 247.433594 C 11.875 246.980469 11.691406 246.363281 11.691406 245.609375 C 11.691406 244.925781 11.816406 244.238281 12.054688 243.589844 C 12.277344 242.945312 12.582031 242.410156 12.925781 241.996094 L 12.925781 241.902344 L 11.234375 241.902344 C 11.023438 242.378906 10.859375 242.925781 10.699219 243.574219 C 10.566406 244.175781 10.476562 244.867188 10.476562 245.609375 C 10.476562 246.769531 10.757812 247.710938 11.351562 248.46875 C 11.921875 249.21875 12.660156 249.585938 13.558594 249.585938 Z M 19.453125 237.382812 C 19.179688 237.574219 18.882812 237.699219 18.546875 237.796875 C 18.203125 237.871094 17.742188 237.898438 17.164062 237.898438 L 10.683594 237.898438 L 10.683594 239.328125 L 17.105469 239.328125 C 17.898438 239.328125 18.585938 239.238281 19.148438 239.070312 C 19.699219 238.90625 20.183594 238.613281 20.578125 238.238281 C 20.914062 237.898438 21.175781 237.472656 21.347656 236.972656 C 21.527344 236.5 21.621094 235.914062 21.621094 235.25 C 21.621094 234.597656 21.53125 234.023438 21.371094 233.535156 C 21.199219 233.035156 20.917969 232.613281 20.578125 232.269531 C 20.183594 231.863281 19.699219 231.582031 19.136719 231.414062 C 18.546875 231.238281 17.875 231.164062 17.105469 231.164062 L 10.683594 231.164062 L 10.683594 232.582031 L 17.199219 232.582031 C 17.726562 232.582031 18.164062 232.613281 18.523438 232.703125 C 18.867188 232.785156 19.179688 232.894531 19.453125 233.085938 C 19.769531 233.308594 20.011719 233.601562 20.167969 233.953125 C 20.332031 234.308594 20.394531 234.746094 20.394531 235.25 C 20.394531 235.742188 20.332031 236.175781 20.15625 236.546875 C 20 236.898438 19.769531 237.183594 19.453125 237.382812 Z M 10.683594 228.449219 L 21.378906 228.449219 L 21.378906 227.042969 L 17.402344 227.042969 L 17.402344 225.617188 C 17.402344 224.859375 17.316406 224.214844 17.121094 223.71875 C 16.941406 223.226562 16.660156 222.773438 16.296875 222.410156 C 15.996094 222.125 15.644531 221.902344 15.238281 221.746094 C 14.835938 221.5625 14.410156 221.484375 13.925781 221.484375 C 13.300781 221.484375 12.785156 221.589844 12.378906 221.820312 C 11.964844 222.050781 11.625 222.355469 11.359375 222.753906 C 11.125 223.09375 10.964844 223.496094 10.859375 223.929688 C 10.746094 224.378906 10.683594 224.921875 10.683594 225.554688 Z M 11.898438 225.636719 C 11.898438 225.179688 11.9375 224.808594 12.011719 224.519531 C 12.070312 224.214844 12.179688 223.96875 12.320312 223.75 C 12.5 223.480469 12.726562 223.273438 12.996094 223.148438 C 13.269531 223.03125 13.585938 222.96875 13.957031 222.96875 C 14.277344 222.96875 14.558594 223.015625 14.8125 223.09375 C 15.070312 223.195312 15.300781 223.351562 15.535156 223.574219 C 15.75 223.808594 15.925781 224.085938 16.023438 224.441406 C 16.132812 224.808594 16.1875 225.28125 16.1875 225.84375 L 16.1875 227.042969 L 11.898438 227.042969 Z M 10.683594 219.613281 L 21.378906 219.613281 L 21.378906 212.59375 L 20.136719 212.59375 L 20.136719 218.210938 L 16.121094 218.210938 L 16.121094 212.59375 L 14.875 212.59375 L 14.875 218.210938 L 11.929688 218.210938 L 11.929688 212.59375 L 10.683594 212.59375 Z M 10.683594 210.355469 L 21.378906 210.355469 L 21.378906 208.957031 L 17.136719 208.957031 L 17.136719 206.964844 L 21.378906 203.417969 L 21.378906 201.5625 L 16.71875 205.558594 C 16.453125 204.886719 16.058594 204.351562 15.535156 203.96875 C 15.023438 203.582031 14.382812 203.394531 13.601562 203.394531 C 13.023438 203.394531 12.566406 203.503906 12.179688 203.714844 C 11.816406 203.914062 11.5 204.238281 11.261719 204.621094 C 11.046875 204.972656 10.898438 205.351562 10.816406 205.777344 C 10.722656 206.207031 10.683594 206.734375 10.683594 207.386719 Z M 11.898438 207.273438 C 11.898438 206.894531 11.929688 206.574219 11.988281 206.285156 C 12.054688 206.019531 12.144531 205.757812 12.277344 205.558594 C 12.449219 205.316406 12.640625 205.128906 12.886719 205.035156 C 13.121094 204.921875 13.386719 204.859375 13.699219 204.859375 C 14.105469 204.859375 14.4375 204.921875 14.695312 205.023438 C 14.957031 205.117188 15.179688 205.285156 15.382812 205.488281 C 15.601562 205.730469 15.738281 206.019531 15.832031 206.335938 C 15.902344 206.679688 15.949219 207.070312 15.949219 207.511719 L 15.949219 208.957031 L 11.898438 208.957031 Z M 10.683594 200.609375 L 11.789062 200.609375 L 11.789062 199.210938 L 20.273438 199.210938 L 20.273438 200.609375 L 21.378906 200.609375 L 21.378906 196.410156 L 20.273438 196.410156 L 20.273438 197.800781 L 11.789062 197.800781 L 11.789062 196.410156 L 10.683594 196.410156 Z M 10.683594 194.023438 L 21.378906 194.023438 L 21.378906 192.679688 L 11.816406 192.679688 L 21.378906 187.648438 L 21.378906 185.898438 L 10.683594 185.898438 L 10.683594 187.210938 L 19.425781 187.210938 L 10.683594 191.8125 Z M 10.683594 184.464844 L 11.929688 184.464844 L 11.929688 180.695312 L 21.378906 180.695312 L 21.378906 179.269531 L 11.929688 179.269531 L 11.929688 175.480469 L 10.683594 175.480469 Z M 10.683594 174.023438 L 21.386719 174.023438 L 21.386719 167.007812 L 20.152344 167.007812 L 20.152344 172.617188 L 16.121094 172.617188 L 16.121094 167.007812 L 14.875 167.007812 L 14.875 172.617188 L 11.9375 172.617188 L 11.9375 167.007812 L 10.683594 167.007812 Z M 10.683594 164.769531 L 21.386719 164.769531 L 21.386719 163.453125 L 11.816406 163.453125 L 21.386719 158.40625 L 21.386719 156.648438 L 10.683594 156.648438 L 10.683594 157.972656 L 19.425781 157.972656 L 10.683594 162.5625 Z M 10.683594 153.816406 L 21.386719 153.816406 L 21.386719 151.132812 C 21.386719 150.148438 21.320312 149.363281 21.175781 148.757812 C 21.058594 148.167969 20.835938 147.613281 20.539062 147.128906 C 20.09375 146.441406 19.480469 145.871094 18.6875 145.441406 C 17.898438 145.023438 17.023438 144.832031 16.039062 144.832031 C 15.015625 144.832031 14.113281 145.019531 13.355469 145.425781 C 12.601562 145.835938 11.996094 146.386719 11.542969 147.128906 C 11.273438 147.554688 11.0625 148.0625 10.910156 148.671875 C 10.757812 149.277344 10.683594 150.117188 10.683594 151.160156 Z M 11.914062 151.074219 C 11.914062 150.398438 11.953125 149.832031 12.054688 149.371094 C 12.148438 148.902344 12.304688 148.460938 12.550781 148.03125 C 12.875 147.457031 13.335938 147.023438 13.898438 146.738281 C 14.476562 146.441406 15.179688 146.292969 16.023438 146.292969 C 16.867188 146.292969 17.5625 146.425781 18.109375 146.679688 C 18.667969 146.96875 19.125 147.34375 19.453125 147.875 C 19.726562 148.304688 19.917969 148.765625 20.019531 149.277344 C 20.117188 149.792969 20.167969 150.378906 20.167969 151.074219 L 20.167969 152.390625 L 11.914062 152.390625 Z M 10.683594 142.527344 L 21.386719 142.527344 L 21.386719 135.484375 L 20.152344 135.484375 L 20.152344 141.113281 L 16.121094 141.113281 L 16.121094 135.484375 L 14.875 135.484375 L 14.875 141.113281 L 11.9375 141.113281 L 11.9375 135.484375 L 10.683594 135.484375 Z M 10.683594 133.261719 L 21.386719 133.261719 L 21.386719 131.9375 L 11.816406 131.9375 L 21.386719 126.890625 L 21.386719 125.140625 L 10.683594 125.140625 L 10.683594 126.472656 L 19.425781 126.472656 L 10.683594 131.058594 Z M 11.921875 121.472656 C 12.402344 121.949219 12.980469 122.308594 13.691406 122.546875 C 14.386719 122.785156 15.171875 122.921875 16.058594 122.921875 C 16.996094 122.921875 17.804688 122.785156 18.523438 122.53125 C 19.222656 122.269531 19.808594 121.925781 20.269531 121.453125 C 20.734375 120.996094 21.070312 120.4375 21.296875 119.824219 C 21.507812 119.183594 21.621094 118.476562 21.621094 117.714844 C 21.621094 117.308594 21.589844 116.921875 21.527344 116.578125 C 21.457031 116.238281 21.378906 115.9375 21.289062 115.640625 C 21.175781 115.300781 21.070312 115.015625 20.976562 114.804688 C 20.882812 114.597656 20.761719 114.355469 20.652344 114.105469 L 18.960938 114.105469 L 18.960938 114.191406 C 19.453125 114.710938 19.808594 115.269531 20.042969 115.871094 C 20.289062 116.457031 20.394531 117.101562 20.394531 117.78125 C 20.394531 118.292969 20.304688 118.746094 20.152344 119.191406 C 19.976562 119.632812 19.699219 120.027344 19.355469 120.367188 C 19.007812 120.679688 18.5625 120.941406 18.015625 121.152344 C 17.476562 121.347656 16.835938 121.453125 16.074219 121.453125 C 15.339844 121.453125 14.714844 121.347656 14.164062 121.171875 C 13.601562 120.988281 13.148438 120.734375 12.792969 120.40625 C 12.417969 120.066406 12.148438 119.671875 11.964844 119.246094 C 11.789062 118.816406 11.691406 118.335938 11.691406 117.800781 C 11.691406 117.136719 11.816406 116.515625 12.042969 115.941406 C 12.261719 115.371094 12.609375 114.785156 13.105469 114.191406 L 13.105469 114.105469 L 11.417969 114.105469 C 11.070312 114.785156 10.832031 115.417969 10.691406 116 C 10.546875 116.566406 10.476562 117.136719 10.476562 117.699219 C 10.476562 118.488281 10.613281 119.191406 10.859375 119.835938 C 11.09375 120.46875 11.460938 121.015625 11.921875 121.472656 Z M 21.386719 112.523438 L 21.386719 108.324219 L 20.289062 108.324219 L 20.289062 109.710938 L 11.789062 109.710938 L 11.789062 108.324219 L 10.683594 108.324219 L 10.683594 112.523438 L 11.789062 112.523438 L 11.789062 111.140625 L 20.289062 111.140625 L 20.289062 112.523438 Z M 21.386719 99.003906 L 21.386719 97.496094 L 10.683594 101.390625 L 10.683594 103.28125 L 21.386719 107.167969 L 21.386719 105.703125 L 18.386719 104.671875 L 18.386719 100.058594 Z M 17.164062 104.238281 L 11.941406 102.359375 L 17.164062 100.507812 Z M 21.386719 89.34375 L 16.214844 89.34375 L 16.214844 84.683594 L 14.972656 84.683594 L 14.972656 89.34375 L 11.9375 89.34375 L 11.9375 83.933594 L 10.683594 83.933594 L 10.683594 90.765625 L 21.386719 90.765625 Z M 21.386719 78.570312 L 20.289062 78.570312 L 20.289062 79.964844 L 11.789062 79.964844 L 11.789062 78.570312 L 10.683594 78.570312 L 10.683594 82.777344 L 11.789062 82.777344 L 11.789062 81.382812 L 20.289062 81.382812 L 20.289062 82.777344 L 21.386719 82.777344 Z M 21.386719 68.042969 L 10.683594 68.042969 L 10.683594 69.375 L 19.425781 69.375 L 10.683594 73.972656 L 10.683594 76.175781 L 21.386719 76.175781 L 21.386719 74.851562 L 11.816406 74.851562 L 21.386719 69.816406 Z M 21.386719 58.308594 L 21.386719 56.808594 L 10.683594 60.683594 L 10.683594 62.589844 L 21.386719 66.460938 L 21.386719 65.015625 L 18.386719 63.964844 L 18.386719 59.359375 Z M 17.164062 63.535156 L 11.941406 61.667969 L 17.164062 59.804688 Z M 21.386719 47.074219 L 10.683594 47.074219 L 10.683594 48.417969 L 19.425781 48.417969 L 10.683594 53.003906 L 10.683594 55.210938 L 21.386719 55.210938 L 21.386719 53.878906 L 11.816406 53.878906 L 21.386719 48.839844 Z M 11.921875 43.417969 C 12.402344 43.898438 12.980469 44.242188 13.691406 44.496094 C 14.386719 44.738281 15.171875 44.859375 16.058594 44.859375 C 16.996094 44.859375 17.804688 44.726562 18.523438 44.480469 C 19.222656 44.214844 19.808594 43.855469 20.269531 43.40625 C 20.734375 42.945312 21.070312 42.394531 21.296875 41.757812 C 21.507812 41.128906 21.621094 40.441406 21.621094 39.664062 C 21.621094 39.25 21.589844 38.882812 21.527344 38.539062 C 21.457031 38.1875 21.378906 37.871094 21.289062 37.59375 C 21.175781 37.238281 21.070312 36.957031 20.976562 36.746094 C 20.882812 36.535156 20.761719 36.308594 20.652344 36.039062 L 18.960938 36.039062 L 18.960938 36.132812 C 19.453125 36.660156 19.808594 37.21875 20.042969 37.808594 C 20.289062 38.398438 20.394531 39.03125 20.394531 39.722656 C 20.394531 40.21875 20.304688 40.6875 20.152344 41.128906 C 19.976562 41.578125 19.699219 41.960938 19.355469 42.304688 C 19.007812 42.625 18.5625 42.863281 18.015625 43.085938 C 17.476562 43.289062 16.835938 43.382812 16.074219 43.382812 C 15.339844 43.382812 14.714844 43.300781 14.164062 43.113281 C 13.601562 42.941406 13.148438 42.671875 12.792969 42.34375 C 12.417969 42.011719 12.148438 41.621094 11.964844 41.191406 C 11.789062 40.761719 11.691406 40.289062 11.691406 39.722656 C 11.691406 39.078125 11.816406 38.464844 12.042969 37.878906 C 12.261719 37.304688 12.609375 36.726562 13.105469 36.140625 L 13.105469 36.039062 L 11.417969 36.039062 C 11.070312 36.726562 10.832031 37.371094 10.691406 37.941406 C 10.546875 38.507812 10.476562 39.078125 10.476562 39.660156 C 10.476562 40.441406 10.613281 41.140625 10.859375 41.785156 C 11.09375 42.421875 11.460938 42.96875 11.921875 43.417969 Z M 11.789062 33.066406 L 20.289062 33.066406 L 20.289062 34.453125 L 21.386719 34.453125 L 21.386719 30.269531 L 20.289062 30.269531 L 20.289062 31.652344 L 11.789062 31.652344 L 11.789062 30.269531 L 10.683594 30.269531 L 10.683594 34.453125 L 11.789062 34.453125 Z M 21.386719 20.832031 L 20.152344 20.832031 L 20.152344 26.457031 L 16.121094 26.457031 L 16.121094 20.832031 L 14.875 20.832031 L 14.875 26.457031 L 11.9375 26.457031 L 11.9375 20.832031 L 10.683594 20.832031 L 10.683594 27.867188 L 21.386719 27.867188 Z M 21.386719 17.1875 L 17.136719 17.1875 L 17.136719 15.203125 L 21.386719 11.644531 L 21.386719 9.8125 L 16.71875 13.789062 C 16.453125 13.125 16.058594 12.597656 15.535156 12.214844 C 15.023438 11.824219 14.382812 11.628906 13.601562 11.628906 C 13.023438 11.628906 12.566406 11.742188 12.179688 11.953125 C 11.816406 12.160156 11.5 12.476562 11.273438 12.859375 C 11.046875 13.191406 10.898438 13.589844 10.816406 14.015625 C 10.722656 14.4375 10.683594 14.976562 10.683594 15.625 L 10.683594 18.597656 L 21.386719 18.597656 Z M 15.949219 17.1875 L 11.914062 17.1875 L 11.914062 15.515625 C 11.914062 15.132812 11.9375 14.808594 11.996094 14.523438 C 12.054688 14.246094 12.148438 14.003906 12.277344 13.789062 C 12.449219 13.554688 12.640625 13.371094 12.886719 13.265625 C 13.121094 13.15625 13.386719 13.101562 13.699219 13.101562 C 14.105469 13.101562 14.4375 13.15625 14.707031 13.25 C 14.957031 13.359375 15.179688 13.523438 15.382812 13.742188 C 15.601562 13.957031 15.738281 14.246094 15.832031 14.582031 C 15.914062 14.925781 15.949219 15.308594 15.949219 15.75 Z M 21.386719 8.207031 L 18.386719 7.171875 L 18.386719 2.558594 L 21.386719 1.496094 L 21.386719 0 L 10.683594 3.871094 L 10.683594 5.777344 L 21.386719 9.660156 Z M 17.164062 6.730469 L 11.941406 4.875 L 17.164062 3.007812 Z M 33.242188 168.273438 C 32.460938 167.855469 31.574219 167.652344 30.609375 167.652344 C 29.574219 167.652344 28.664062 167.847656 27.90625 168.246094 C 27.152344 168.652344 26.546875 169.230469 26.101562 169.964844 C 25.832031 170.371094 25.621094 170.890625 25.46875 171.515625 C 25.324219 172.121094 25.234375 172.933594 25.234375 173.980469 L 25.234375 176.640625 L 35.949219 176.640625 L 35.949219 173.949219 C 35.949219 172.964844 35.875 172.183594 35.738281 171.582031 C 35.601562 170.992188 35.394531 170.433594 35.089844 169.964844 C 34.652344 169.253906 34.039062 168.703125 33.242188 168.273438 Z M 34.71875 175.21875 L 26.46875 175.21875 L 26.46875 173.890625 C 26.46875 173.242188 26.511719 172.671875 26.605469 172.195312 C 26.695312 171.726562 26.863281 171.277344 27.101562 170.855469 C 27.433594 170.277344 27.878906 169.847656 28.460938 169.5625 C 29.03125 169.253906 29.738281 169.125 30.582031 169.125 C 31.425781 169.125 32.105469 169.242188 32.667969 169.503906 C 33.230469 169.777344 33.667969 170.175781 34.011719 170.710938 C 34.28125 171.140625 34.464844 171.597656 34.570312 172.113281 C 34.675781 172.617188 34.71875 173.207031 34.71875 173.890625 Z M 35.949219 158.324219 L 34.691406 158.324219 L 34.691406 163.933594 L 30.679688 163.933594 L 30.679688 158.324219 L 29.433594 158.324219 L 29.433594 163.933594 L 26.5 163.933594 L 26.5 158.324219 L 25.234375 158.324219 L 25.234375 165.351562 L 35.949219 165.351562 Z M 36.078125 145.214844 C 36.015625 144.867188 35.925781 144.566406 35.847656 144.269531 C 35.738281 143.929688 35.625 143.667969 35.535156 143.449219 C 35.433594 143.238281 35.3125 142.980469 35.1875 142.726562 L 33.535156 142.726562 L 33.535156 142.820312 C 34.011719 143.34375 34.355469 143.898438 34.601562 144.5 C 34.832031 145.082031 34.957031 145.738281 34.957031 146.425781 C 34.957031 146.910156 34.863281 147.378906 34.691406 147.828125 C 34.539062 148.265625 34.253906 148.660156 33.914062 148.992188 C 33.558594 149.320312 33.128906 149.566406 32.566406 149.773438 C 32.039062 149.972656 31.375 150.074219 30.625 150.074219 C 29.910156 150.074219 29.265625 149.992188 28.703125 149.796875 C 28.160156 149.625 27.707031 149.371094 27.34375 149.035156 C 26.976562 148.695312 26.695312 148.308594 26.523438 147.875 C 26.351562 147.457031 26.257812 146.972656 26.257812 146.441406 C 26.257812 145.78125 26.375 145.160156 26.597656 144.589844 C 26.820312 144.015625 27.175781 143.417969 27.664062 142.835938 L 27.664062 142.726562 L 25.976562 142.726562 C 25.628906 143.417969 25.382812 144.050781 25.234375 144.625 C 25.113281 145.199219 25.027344 145.765625 25.027344 146.335938 C 25.027344 147.109375 25.160156 147.832031 25.40625 148.480469 C 25.648438 149.101562 26.015625 149.644531 26.480469 150.117188 C 26.953125 150.582031 27.539062 150.925781 28.242188 151.179688 C 28.9375 151.417969 29.734375 151.542969 30.625 151.542969 C 31.558594 151.542969 32.367188 151.417969 33.074219 151.160156 C 33.785156 150.921875 34.355469 150.558594 34.816406 150.097656 C 35.289062 149.625 35.625 149.078125 35.847656 148.460938 C 36.0625 147.804688 36.179688 147.109375 36.179688 146.355469 C 36.179688 145.929688 36.132812 145.558594 36.078125 145.214844 Z M 26.46875 139.980469 C 26.960938 140.417969 27.550781 140.746094 28.261719 140.984375 C 28.929688 141.207031 29.714844 141.328125 30.597656 141.328125 C 31.492188 141.328125 32.277344 141.207031 32.960938 140.976562 C 33.65625 140.742188 34.230469 140.417969 34.710938 139.992188 C 35.1875 139.558594 35.558594 139.042969 35.796875 138.425781 C 36.054688 137.800781 36.179688 137.148438 36.179688 136.378906 C 36.179688 135.609375 36.054688 134.925781 35.800781 134.332031 C 35.570312 133.726562 35.1875 133.207031 34.710938 132.777344 C 34.246094 132.355469 33.667969 132.023438 32.960938 131.789062 C 32.277344 131.550781 31.484375 131.425781 30.597656 131.425781 C 29.714844 131.425781 28.929688 131.550781 28.234375 131.78125 C 27.523438 132.019531 26.929688 132.335938 26.46875 132.777344 C 26.003906 133.199219 25.636719 133.703125 25.390625 134.332031 C 25.136719 134.925781 25.019531 135.609375 25.019531 136.378906 C 25.019531 137.117188 25.136719 137.789062 25.382812 138.425781 C 25.628906 139.046875 26 139.5625 26.46875 139.980469 Z M 27.382812 133.84375 C 28.132812 133.207031 29.203125 132.914062 30.597656 132.914062 C 32.011719 132.914062 33.074219 133.222656 33.832031 133.84375 C 34.578125 134.464844 34.957031 135.316406 34.957031 136.378906 C 34.957031 137.425781 34.578125 138.292969 33.832031 138.917969 C 33.074219 139.546875 32.011719 139.851562 30.597656 139.851562 C 29.203125 139.851562 28.132812 139.546875 27.382812 138.929688 C 26.613281 138.3125 26.242188 137.46875 26.242188 136.378906 C 26.242188 135.316406 26.613281 134.460938 27.382812 133.84375 Z M 34.691406 127.773438 L 25.234375 127.773438 L 25.234375 129.207031 L 35.949219 129.207031 L 35.949219 122.417969 L 34.691406 122.417969 Z M 26.46875 120.4375 C 26.960938 120.875 27.550781 121.214844 28.261719 121.453125 C 28.929688 121.664062 29.714844 121.78125 30.597656 121.78125 C 31.492188 121.78125 32.277344 121.664062 32.960938 121.453125 C 33.65625 121.199219 34.230469 120.875 34.710938 120.445312 C 35.1875 120.027344 35.558594 119.496094 35.796875 118.886719 C 36.054688 118.292969 36.179688 117.585938 36.179688 116.839844 C 36.179688 116.078125 36.054688 115.402344 35.800781 114.792969 C 35.570312 114.191406 35.1875 113.695312 34.710938 113.242188 C 34.246094 112.816406 33.667969 112.488281 32.960938 112.253906 C 32.277344 112.015625 31.484375 111.898438 30.597656 111.898438 C 29.714844 111.898438 28.929688 112.015625 28.234375 112.253906 C 27.523438 112.484375 26.929688 112.804688 26.46875 113.242188 C 26.003906 113.675781 25.636719 114.179688 25.390625 114.785156 C 25.136719 115.402344 25.019531 116.078125 25.019531 116.839844 C 25.019531 117.578125 25.136719 118.261719 25.382812 118.886719 C 25.628906 119.496094 26 120.027344 26.46875 120.4375 Z M 27.382812 114.304688 C 28.132812 113.695312 29.203125 113.363281 30.597656 113.363281 C 32.011719 113.363281 33.074219 113.695312 33.832031 114.304688 C 34.578125 114.933594 34.957031 115.78125 34.957031 116.839844 C 34.957031 117.890625 34.578125 118.746094 33.832031 119.378906 C 33.074219 120.003906 32.011719 120.316406 30.597656 120.316406 C 29.203125 120.316406 28.132812 120.003906 27.382812 119.402344 C 26.613281 118.765625 26.242188 117.921875 26.242188 116.839844 C 26.242188 115.773438 26.613281 114.921875 27.382812 114.304688 Z M 35.949219 108.324219 L 26.726562 108.324219 L 33.003906 105.394531 L 33.003906 104.53125 L 26.726562 101.585938 L 35.949219 101.585938 L 35.949219 100.167969 L 25.234375 100.167969 L 25.234375 102.140625 L 31.210938 104.875 L 25.234375 107.71875 L 25.234375 109.65625 L 35.949219 109.65625 Z M 35.949219 93.523438 C 35.949219 92.789062 35.875 92.171875 35.738281 91.695312 C 35.601562 91.222656 35.386719 90.777344 35.0625 90.382812 C 34.808594 90.050781 34.464844 89.75 34.0625 89.566406 C 33.65625 89.359375 33.1875 89.273438 32.648438 89.273438 C 31.917969 89.273438 31.300781 89.476562 30.804688 89.886719 C 30.335938 90.292969 30.011719 90.878906 29.855469 91.585938 L 29.804688 91.585938 C 29.574219 91.144531 29.292969 90.816406 28.929688 90.546875 C 28.582031 90.28125 28.160156 90.152344 27.652344 90.152344 C 27.1875 90.152344 26.820312 90.261719 26.488281 90.429688 C 26.160156 90.609375 25.898438 90.894531 25.6875 91.28125 C 25.507812 91.648438 25.390625 92.015625 25.324219 92.402344 C 25.269531 92.789062 25.234375 93.355469 25.234375 94.148438 L 25.234375 97.316406 L 35.949219 97.316406 Z M 29.542969 95.886719 L 26.46875 95.886719 L 26.46875 94.191406 C 26.46875 93.714844 26.488281 93.324219 26.511719 93.003906 C 26.542969 92.683594 26.625 92.421875 26.746094 92.171875 C 26.863281 91.992188 27.003906 91.855469 27.183594 91.761719 C 27.351562 91.6875 27.582031 91.648438 27.832031 91.648438 C 28.160156 91.648438 28.414062 91.6875 28.632812 91.78125 C 28.871094 91.867188 29.0625 92.019531 29.195312 92.253906 C 29.34375 92.488281 29.433594 92.722656 29.484375 92.988281 C 29.515625 93.261719 29.542969 93.613281 29.542969 94.066406 Z M 34.71875 95.886719 L 30.757812 95.886719 L 30.757812 93.675781 C 30.757812 93.1875 30.785156 92.792969 30.816406 92.476562 C 30.859375 92.148438 30.9375 91.859375 31.0625 91.648438 C 31.222656 91.300781 31.449219 91.058594 31.699219 90.933594 C 31.949219 90.816406 32.285156 90.742188 32.714844 90.742188 C 33.097656 90.742188 33.40625 90.816406 33.632812 90.917969 C 33.871094 91.042969 34.097656 91.25 34.253906 91.511719 C 34.445312 91.761719 34.558594 92.082031 34.613281 92.503906 C 34.691406 92.894531 34.71875 93.40625 34.71875 94.015625 Z M 26.351562 86.3125 L 34.832031 86.3125 L 34.832031 87.703125 L 35.949219 87.703125 L 35.949219 83.511719 L 34.832031 83.511719 L 34.832031 84.882812 L 26.351562 84.882812 L 26.351562 83.511719 L 25.234375 83.511719 L 25.234375 87.703125 L 26.351562 87.703125 Z M 35.949219 80.894531 L 32.945312 79.855469 L 32.945312 75.246094 L 35.949219 74.195312 L 35.949219 72.679688 L 25.234375 76.570312 L 25.234375 78.457031 L 35.949219 82.351562 Z M 31.722656 79.421875 L 26.5 77.554688 L 31.722656 75.679688 Z M 0 396 L 4.0625 396 L 4.0625 254.28125 L 0 254.28125 Z M 35.949219 396 L 40 396 L 40 254.28125 L 35.949219 254.28125 Z M 35.949219 396 "/>
  </g>
</svg>
