<?xml version="1.1" encoding="UTF-8"?>
<svg version="1.1" xmlns="http://www.w3.org/2000/svg" width="64" height="64" viewBox="0 0 64 64">
  <title>bf-pc-logo</title>
  <path fill="#007a33" d="M42.973 62c-10.517 0-40.973-8.185-40.973-18.282 0-10.088 30.456-18.27 40.973-18.27 10.505 0 19.027 8.182 19.027 18.27 0 10.098-8.522 18.282-19.027 18.282z"></path>
  <path fill="#c3d600" d="M33.585 32.317c-6.835-3.995-23.3-20.885-19.138-27.451 4.15-6.566 27.34-0.34 34.187 3.668 6.835 3.973 9.027 12.543 4.865 19.109-4.15 6.578-13.066 8.672-19.914 4.674z"></path>
  <path fill="#154734" d="M27.831 27.902c2.179 1.951 4.215 3.513 5.759 4.415 6.633 3.872 15.206 2.030 19.509-4.068-2.933-1.775-6.406-2.801-10.127-2.801-3.476 0-9.129 0.894-15.142 2.454z"></path>
</svg>
